<?xml version="1.0" encoding="UTF-8"?>
<svg width="1920px" height="587px" viewBox="0 0 1920 587" version="1.1" xmlns="http://www.w3.org/2000/svg" xmlns:xlink="http://www.w3.org/1999/xlink">
    <!-- Generator: Sketch 48.2 (47327) - http://www.bohemiancoding.com/sketch -->
    <title>2Default~iphone</title>
    <desc>Created with Sketch.</desc>
    <defs></defs>
    <g id="Page-1" stroke="none" stroke-width="1" fill="none" fill-rule="evenodd">
        <g id="2" fill-rule="nonzero">
            <path d="M625.8048,49.9827838 C403.26912,12.1148378 230.14656,24.2440135 0,66.1906216 L0,364 L1920,364 L1920,0.281310811 C1876.31232,11.9847973 1731.84,65.5945946 1397.76,85.7432432 C1054.43328,106.450297 821.09184,83.2165405 625.8048,49.9827838 Z" id="Shape" fill="#335896"></path>
            <path d="M0,394 L0,69.0886486 C136.18944,70.5134459 271.872,90.5354459 394.38336,136.241216 C388.24704,135.628122 382.11072,135.035176 375.96672,134.465257 C304.24704,127.796054 231.44832,122.327135 159.21024,120.427405 C147.55968,120.119419 135.82464,119.935203 124.06272,119.935203 C82.40256,119.935203 40.35456,122.243662 0,129.574892 L0,394 M1144.66944,217.561162 C1117.92,217.561162 1091.1744,217.051689 1064.448,216.058649 C1116.192,208.315811 1167.50976,198.037122 1218.58944,185.867338 C1287.38304,169.48073 1355.10912,150.733851 1423.2192,132.853365 C1493.88672,114.299338 1567.31904,101.830203 1641.89184,96.5023243 C1669.8624,94.5018514 1697.856,93.5232027 1725.79584,93.5232027 C1752.39168,93.5232027 1778.9376,94.4097432 1805.36832,96.1511622 C1796.63616,99.1763378 1787.91168,102.253324 1779.19488,105.370608 C1709.61408,130.242676 1639.61088,154.018081 1565.90592,171.276838 C1492.84224,188.383041 1417.6896,200.305284 1341.84192,207.904203 C1276.16256,214.481297 1210.39104,217.561162 1144.66944,217.561162 M858.47424,231.999108 C838.39488,232.001986 818.23104,231.518419 797.952,230.5225 C726.05568,226.99073 654.16704,218.726905 585.32736,202.484216 C520.02816,187.076257 461.4144,161.809851 400.72704,138.636027 C398.6112,137.830081 396.50688,137.03277 394.38336,136.241216 C555.79776,152.36877 714.0288,182.430554 874.85568,201.269541 C937.88928,208.655459 1001.11872,213.709892 1064.448,216.058649 C996.672,226.202054 928.15104,231.999108 858.47424,231.999108 M1920,109.106743 C1882.176,103.044878 1843.89504,98.6898919 1805.36832,96.1511622 C1843.18848,83.0459054 1881.20832,70.8588514 1920,60.1599189 L1920,109.106743" id="Shape" fill="#274885"></path>
            <path d="M0,129.574892 C40.35456,122.243662 82.40256,119.935203 124.06272,119.935203 C135.82464,119.935203 147.55968,120.119419 159.21024,120.427405 C231.44832,122.327135 304.24704,127.796054 375.96672,134.465257 C382.11072,135.035176 388.24704,135.628122 394.38336,136.241216 C396.50688,137.03277 398.6112,137.830081 400.72704,138.636027 C461.4144,161.809851 520.02816,187.076257 585.32736,202.484216 C654.16704,218.726905 726.05568,226.99073 797.952,230.5225 C818.23104,231.518419 838.39488,232.001986 858.47424,231.999108 C928.15104,231.999108 996.672,226.202054 1064.448,216.058649 C1091.1744,217.051689 1117.92,217.561162 1144.66944,217.561162 C1210.39104,217.561162 1276.16256,214.481297 1341.84192,207.904203 C1417.6896,200.305284 1492.84224,188.383041 1565.90592,171.276838 C1639.61088,154.018081 1709.61408,130.242676 1779.19488,105.370608 C1787.91168,102.253324 1796.63616,99.1763378 1805.36832,96.1511622 C1843.89504,98.6898919 1882.176,103.044878 1920,109.106743 L1920,215.802473 L1920,242.710022 C1862.27328,237.88586 1762.80192,223.899351 1704.65664,223.899351 C1698.49728,223.899351 1692.34176,223.945405 1686.17088,224.04327 C1601.4144,225.378838 1517.17632,233.872932 1434.01344,245.870014 C1272.29184,269.19927 1115.17824,309.038905 950.12352,317.783419 C916.48128,319.568014 882.76224,320.385473 849.05472,320.385473 C820.63104,320.385473 792.21888,319.804041 763.82592,318.733284 C636.77952,297.312392 436.416,238.06673 156.73344,238.06673 C106.99008,238.06673 54.7968,239.937676 0,244.229338 L0,394 L0,129.574892 Z" id="Shape" fill="#263B6E"></path>
            <path d="M1920,289.326172 L1920,587 L0,587 L0,326 L0,244.229338 C54.7968,239.937676 106.99008,238.06673 156.73344,238.06673 C436.416,238.06673 636.77952,297.312392 763.00032,318.595122 C763.01476,318.597527 763.414437,318.649361 764.15766,318.745772 C792.440189,319.808561 820.74174,320.385473 849.05472,320.385473 C882.76224,320.385473 916.48128,319.568014 950.12352,317.783419 C1115.17824,309.038905 1272.29184,269.19927 1434.01344,245.870014 C1517.17632,233.872932 1601.4144,225.378838 1686.17088,224.04327 C1692.34176,223.945405 1698.49728,223.899351 1704.65664,223.899351 C1762.80192,223.899351 1894.10677,234.125 1920,241.166016 L1920,289.326172 Z" id="Shape" fill="#27335C"></path>
        </g>
    </g>
</svg>
