<svg xmlns="http://www.w3.org/2000/svg" xmlns:xlink="http://www.w3.org/1999/xlink" viewBox="0 0 1024 1024">
  <defs>
    <style>
      .cls-1 {
        clip-path: url(#clip-path);
      }

      .cls-2 {
        fill: rgba(255,255,255,0);
      }

      .cls-3, .cls-4 {
        fill: #fff;
      }

      .cls-5, .cls-9 {
        fill: none;
      }

      .cls-5 {
        stroke: #666;
        stroke-width: 2px;
      }

      .cls-6 {
        fill: #666;
      }

      .cls-7, .cls-8 {
        stroke: none;
      }

      .cls-8 {
        fill: #f5f5f5;
      }
    </style>
    <clipPath id="clip-path">
      <rect id="Rectangle_2" data-name="Rectangle 2" width="1024" height="1024"/>
    </clipPath>
  </defs>
  <g id="sprite" class="cls-1">
    <path id="Path_16" data-name="Path 16" class="cls-2" d="M0,0H1024V1024H0Z"/>
    <g id="教育_1_" data-name="教育 (1)" class="cls-3" transform="translate(-10.425 -129.791)">
      <path class="cls-7" d="M 46.35156631469727 184.4965209960938 C 46.22690582275391 184.4965209960938 46.10082626342773 184.4956665039063 45.97600555419922 184.4940032958984 C 42.92462539672852 184.4939727783203 39.9495735168457 184.0996398925781 37.12949371337891 183.3219451904297 C 34.86005401611328 182.6960906982422 32.68244552612305 181.8210906982422 30.65716552734375 180.7212219238281 C 27.06768417358398 178.7719116210938 25.21623420715332 176.8125915527344 25.13917541503906 176.7301483154297 C 24.93984413146973 176.5187225341797 24.83071517944336 176.2435150146484 24.83099555969238 175.9542694091797 L 24.83099555969238 158.6339569091797 C 24.83025550842285 158.2629852294922 25.01217460632324 157.9168395996094 25.3176441192627 157.7073974609375 C 25.49710464477539 157.5844268798828 25.70706558227539 157.5193939208984 25.92475509643555 157.5193939208984 C 26.06571578979492 157.5193939208984 26.20330429077148 157.5466461181641 26.33371543884277 157.6003570556641 C 29.3032054901123 158.8237457275391 32.53017425537109 159.9220733642578 36.26670455932617 161.1938323974609 L 36.30533599853516 161.2069854736328 C 37.7971076965332 161.7111968994141 39.18840789794922 162.1879272460938 40.55938720703125 162.6646270751953 C 42.36980056762695 163.3279418945313 44.26540374755859 163.6776123046875 46.19329071044922 163.7039337158203 C 46.28601837158203 163.7067260742188 46.38008117675781 163.7081604003906 46.47289657592773 163.7081604003906 C 47.89899444580078 163.7081298828125 49.32769393920898 163.3725128173828 50.60456466674805 162.7375946044922 L 50.60929489135742 162.7352447509766 L 50.61394500732422 162.7327270507813 C 50.6435546875 162.7166900634766 50.67416381835938 162.7021331787109 50.7049446105957 162.6894989013672 C 52.49109649658203 161.94140625 54.61531448364258 160.9367980957031 56.86425399780273 159.8731994628906 C 59.04746627807617 158.8404693603516 61.7645263671875 157.5552368164063 64.50162506103516 156.3651123046875 C 64.63834381103516 156.3056182861328 64.78314208984375 156.2754669189453 64.93208312988281 156.2754669189453 C 65.14683532714844 156.2754669189453 65.3546142578125 156.3386535644531 65.53295135498047 156.4582061767578 C 65.84408569335938 156.6670379638672 66.02958679199219 157.0156097412109 66.02899169921875 157.3905334472656 L 66.02899169921875 175.9539947509766 C 66.02921295166016 176.2357177734375 65.92536163330078 176.5048370361328 65.73636627197266 176.7131042480469 C 63.14007186889648 179.1987152099609 60.13262939453125 181.1381378173828 56.79752349853516 182.4774475097656 C 53.46134567260742 183.8171997070313 49.94681549072266 184.4965209960938 46.35156631469727 184.4965209960938 Z M 27.01499557495117 160.262939453125 L 27.01499557495117 160.6999969482422 L 27.01500511169434 175.3359985351563 L 27.01500511169434 175.4756317138672 L 27.12183570861816 175.5655364990234 C 32.25336456298828 179.8841094970703 38.772705078125 182.2623596191406 45.47892379760742 182.26220703125 C 45.64168548583984 182.26220703125 45.8065185546875 182.2607879638672 45.96889495849609 182.2580108642578 C 46.02787017822266 182.2584075927734 46.08597946166992 182.2585906982422 46.14495468139648 182.2585906982422 C 52.63499450683594 182.2585906982422 58.88164520263672 179.8851013183594 63.73422622680664 175.5753021240234 L 63.90655517578125 175.4222412109375 L 63.83400344848633 175.2778625488281 L 63.83400344848633 159.5489959716797 L 63.83400344848633 159.0845184326172 L 63.41062545776367 159.2755432128906 C 61.3493766784668 160.2055511474609 59.28848648071289 161.1807708740234 57.78368377685547 161.8928375244141 L 57.6748161315918 161.9442749023438 C 55.46033477783203 162.9907379150391 53.36867523193359 163.9791564941406 51.59587478637695 164.7234039306641 L 51.58683395385742 164.7271881103516 L 51.57806396484375 164.7315673828125 C 50.00358581542969 165.5171661376953 48.24133682250977 165.9323883056641 46.48181533813477 165.9323883056641 C 46.39037322998047 165.9323883056641 46.29765319824219 165.9312744140625 46.20623397827148 165.9290771484375 C 44.02589416503906 165.9085083007813 41.88696670532227 165.5177001953125 39.84443664550781 164.7673950195313 L 39.84201431274414 164.7665100097656 L 39.83957672119141 164.7656555175781 C 38.58962631225586 164.3307800292969 37.37922668457031 163.9183349609375 36.20867538452148 163.5194702148438 L 35.61182403564453 163.3160400390625 C 32.68772506713867 162.3225708007813 29.92609405517578 161.3843078613281 27.4228343963623 160.4200439453125 L 27.01499557495117 160.262939453125 Z M 75.26199340820313 165.2809753417969 C 74.98301696777344 165.2809753417969 74.71156311035156 165.1661682128906 74.51724243164063 164.9660186767578 L 71.2657470703125 161.6644592285156 C 70.84813690185547 161.2449798583984 70.84602355957031 160.5622253417969 71.25990295410156 160.1413269042969 L 72.42157745361328 158.9636535644531 L 72.42746734619141 158.9576721191406 L 72.43302154541016 158.9513702392578 C 73.05158233642578 158.2498168945313 73.41759490966797 157.3489685058594 73.46364593505859 156.4147644042969 L 73.46400451660156 156.4073791503906 L 73.46400451660156 156.3999938964844 L 73.46400451660156 149.2940063476563 L 73.46400451660156 148.8431396484375 L 73.04813385009766 149.0172882080078 C 60.04248428344727 154.4631500244141 52.9099235534668 157.4703369140625 50.0191650390625 158.7932281494141 L 50.01433563232422 158.7954406738281 L 50.00958633422852 158.7978210449219 C 48.60100936889648 159.5037994384766 47.024169921875 159.8972778320313 45.44906997680664 159.9359130859375 C 44.00518417358398 159.9002380371094 42.59739685058594 159.5998992919922 41.26463317871094 159.0431823730469 L 41.26042556762695 159.0414276123047 L 41.25616455078125 159.039794921875 C 40.86293411254883 158.8894195556641 40.29766464233398 158.6759185791016 39.58200454711914 158.4056091308594 C 34.13953399658203 156.3499603271484 21.39428520202637 151.5360107421875 14.56211471557617 148.2161712646484 C 12.89281463623047 147.4056549072266 10.67903518676758 146.205810546875 10.72559452056885 145.1478271484375 C 10.7602653503418 144.3598785400391 12.03604507446289 143.4971466064453 14.62582492828369 142.5103607177734 C 18.49796485900879 141.0174560546875 23.68608474731445 139.0575408935547 28.70338439941406 137.1621551513672 C 33.19769668579102 135.4643402099609 37.44276428222656 133.8606719970703 40.46674346923828 132.6969909667969 L 40.46982574462891 132.69580078125 L 40.47287368774414 132.6945495605469 L 40.56376647949219 132.6572570800781 C 42.77810287475586 131.7486419677734 44.37847137451172 131.0919647216797 46.00445175170898 131.0909881591797 C 47.22643661499023 131.1211853027344 48.43646240234375 131.4520568847656 49.50376510620117 132.0479278564453 L 49.51849365234375 132.0561676025391 L 49.53406524658203 132.0626831054688 C 52.54528427124023 133.3244476318359 57.36107635498047 135.2174072265625 62.45963668823242 137.2215118408203 C 67.83773803710938 139.3354949951172 73.39906311035156 141.5215148925781 77.04950714111328 143.0516204833984 C 79.70829010009766 144.2298126220703 80.11744689941406 144.9452056884766 80.12468719482422 145.2668609619141 C 80.1363525390625 145.7855682373047 79.16618347167969 146.2686767578125 78.31021118164063 146.6949005126953 C 77.92659759521484 146.8859252929688 77.56425476074219 147.0663604736328 77.25506591796875 147.2611999511719 L 76.37621307373047 147.8150024414063 L 77.11800384521484 147.8150024414063 L 77.11800384521484 157.8409881591797 L 77.11800384521484 157.9639282226563 L 77.20429229736328 158.0515289306641 L 79.26429748535156 160.1425170898438 C 79.67601776123047 160.5693054199219 79.67360687255859 161.2391052246094 79.25660705566406 161.6651306152344 L 76.00821685791016 164.9645080566406 C 75.81242370605469 165.1661682128906 75.54097747802734 165.2809753417969 75.26199340820313 165.2809753417969 Z M 42.01939392089844 156.9481201171875 C 43.10595703125 157.4116363525391 44.25543212890625 157.6661987304688 45.43618392944336 157.704833984375 L 45.46189498901367 157.7056732177734 L 45.48738479614258 157.7021179199219 C 46.72096633911133 157.5303039550781 47.93594360351563 157.2167053222656 49.09859466552734 156.7700500488281 L 49.10736465454102 156.7666778564453 L 49.11590576171875 156.7627716064453 C 52.41231536865234 155.2532653808594 74.26555633544922 146.0980072021484 74.48590850830078 146.0057067871094 C 75.10865783691406 145.7449951171875 75.19911193847656 145.3900146484375 75.19761657714844 145.2016296386719 C 75.19611358642578 145.0140380859375 75.10107421875 144.6623229980469 74.48142242431641 144.4144592285156 C 74.40581512451172 144.3839874267578 66.79100799560547 141.3161010742188 61.69674682617188 139.3137969970703 L 61.42478561401367 139.2068176269531 C 56.41703414916992 137.2370147705078 51.68701553344727 135.3764495849609 48.70300674438477 134.1253509521484 C 48.64705657958984 134.1013488769531 48.5928840637207 134.0762634277344 48.54373931884766 134.051513671875 C 47.77865982055664 133.6031799316406 46.90610885620117 133.3510131835938 46.01975631713867 133.3221740722656 L 45.99656677246094 133.3214111328125 L 45.97354507446289 133.3242340087891 C 44.3651123046875 133.5211181640625 42.81776428222656 133.9943542480469 41.37446212768555 134.7307586669922 L 41.23794555664063 134.7857360839844 C 38.1812858581543 135.960693359375 33.79035568237305 137.6193389892578 29.54399490356445 139.2233734130859 L 28.57021522521973 139.5911407470703 C 23.88259506225586 141.3615112304688 19.03537559509277 143.1921691894531 15.40090465545654 144.5961608886719 C 15.06014537811279 144.7319030761719 14.84974479675293 144.9925384521484 14.83515453338623 145.2945098876953 C 14.81830501556396 145.6432800292969 15.05940532684326 145.9724731445313 15.49662494659424 146.1977081298828 L 15.49972534179688 146.1992950439453 L 15.50285530090332 146.2008209228516 C 22.21382522583008 149.462890625 35.33118438720703 154.4193725585938 40.26932525634766 156.2852783203125 L 40.30996322631836 156.3006286621094 C 41.0634651184082 156.5851440429688 41.62781143188477 156.7983703613281 42.01939392089844 156.9481201171875 Z"/>
      <path class="cls-8" d="M 46.35156631469727 184.1965179443359 C 49.9083366394043 184.1965179443359 53.38525390625 183.5244750976563 56.68573379516602 182.1990661621094 C 59.98170471191406 180.8754577636719 62.95401382446289 178.9595947265625 65.52070617675781 176.5042419433594 C 65.65529632568359 176.3524169921875 65.72914886474609 176.1578063964844 65.72899627685547 175.9539947509766 L 65.72899627685547 157.3900604248047 C 65.72942352294922 157.115478515625 65.59357452392578 156.8601989746094 65.36592864990234 156.7073974609375 C 65.23716735839844 156.62109375 65.08714294433594 156.5754699707031 64.93208312988281 156.5754699707031 C 64.82457733154297 156.5754699707031 64.72004699707031 156.5972442626953 64.62124633789063 156.6402282714844 C 61.88850402832031 157.8284606933594 59.17383575439453 159.1125793457031 56.99251556396484 160.1443939208984 C 54.74042510986328 161.2094879150391 52.61323547363281 162.2154998779297 50.81888580322266 162.9670257568359 C 50.7979736328125 162.9756011962891 50.77712631225586 162.9855194091797 50.75689315795898 162.9964904785156 L 50.74759674072266 163.0015106201172 L 50.73813629150391 163.0062255859375 C 49.41998672485352 163.6616668701172 47.94509506225586 164.0081176757813 46.47289657592773 164.0081481933594 C 46.37800979614258 164.0081481933594 46.28190612792969 164.0067138671875 46.18716430664063 164.0038757324219 C 44.22681045532227 163.9769134521484 42.29938125610352 163.621337890625 40.45839309692383 162.9471282958984 C 39.08904266357422 162.4710083007813 37.69930648803711 161.9948272705078 36.20866394042969 161.4909820556641 L 36.17003631591797 161.4778289794922 C 32.42873382568359 160.2044372558594 29.19763565063477 159.1047210693359 26.21944427490234 157.8777465820313 C 26.12545585632324 157.8390197753906 26.02630424499512 157.8193969726563 25.92475509643555 157.8193969726563 C 25.76785469055176 157.8193969726563 25.61653518676758 157.8662567138672 25.48728561401367 157.9548187255859 C 25.26364517211914 158.108154296875 25.13045501708984 158.3615875244141 25.13099479675293 158.6339569091797 L 25.13099479675293 175.9545593261719 C 25.13079452514648 176.1668853759766 25.21089553833008 176.368896484375 25.35835456848145 176.5252990722656 C 25.37689399719238 176.5451354980469 27.25338554382324 178.5313568115234 30.80033493041992 180.4575805664063 C 32.8055534362793 181.5465545654297 34.96182632446289 182.4129486083984 37.20925521850586 183.0327301025391 C 40.00335311889648 183.8032684326172 42.95156478881836 184.1939697265625 45.97199630737305 184.1939697265625 L 45.97601318359375 184.1939697265625 L 45.98003387451172 184.1940307617188 C 46.103515625 184.1956787109375 46.22824478149414 184.1965179443359 46.35156631469727 184.1965179443359 M 26.71499443054199 159.8258972167969 L 27.53066444396973 160.1400909423828 C 30.02830505371094 161.1021881103516 32.78717422485352 162.0395202636719 35.70864486694336 163.0321044921875 L 36.30543518066406 163.2355041503906 C 37.47643661499023 163.634521484375 38.68729400634766 164.047119140625 39.93815612792969 164.4823150634766 L 39.94303512573242 164.4840087890625 L 39.94788360595703 164.4857940673828 C 41.95807647705078 165.2242126464844 44.06315612792969 165.6088562011719 46.20464324951172 165.6290130615234 L 46.20904541015625 165.6290588378906 L 46.21344375610352 165.629150390625 C 46.30256652832031 165.6313018798828 46.39285659790039 165.6324005126953 46.48181533813477 165.6324005126953 C 48.19508361816406 165.6324005126953 49.91102600097656 165.2280731201172 51.44412612915039 164.463134765625 L 51.46167373657227 164.4543762207031 L 51.47975540161133 164.44677734375 C 53.24646377563477 163.7051086425781 55.33523559570313 162.7180480957031 57.54664611816406 161.6730346679688 L 57.65536499023438 161.6216583251953 C 59.16120529174805 160.9091033935547 61.22351455688477 159.9332122802734 63.28724670410156 159.0020904541016 L 64.13400268554688 158.6200408935547 L 64.13400268554688 159.5489959716797 L 64.13400268554688 175.2067108154297 L 64.27810668945313 175.4934844970703 L 63.93343353271484 175.7996063232422 C 59.02590560913086 180.158203125 52.70849609375 182.55859375 46.14495468139648 182.55859375 C 46.08633804321289 182.55859375 46.02857208251953 182.5584106445313 45.97000503540039 182.5580291748047 C 45.80693435668945 182.5608062744141 45.64174270629883 182.5622100830078 45.47892379760742 182.5622100830078 C 38.70213317871094 182.5623626708984 32.11419677734375 180.1590881347656 26.92866516113281 175.7950744628906 L 26.71500587463379 175.6152648925781 L 26.71500587463379 175.3359985351563 L 26.71499443054199 160.6999969482422 L 26.71499443054199 159.8258972167969 M 75.26199340820313 164.9809722900391 C 75.46034240722656 164.9809722900391 75.65333557128906 164.8993530273438 75.79443359375 164.7540283203125 L 79.04220581054688 161.4552917480469 C 79.34427642822266 161.1466827392578 79.34663391113281 160.661865234375 79.04798889160156 160.3504180908203 L 76.99058532714844 158.2620697021484 L 76.81800842285156 158.0868988037109 L 76.81800842285156 157.8409881591797 L 76.81800842285156 148.1150054931641 L 75.33742523193359 148.1150054931641 L 77.09512329101563 147.0073852539063 C 77.41705322265625 146.8045196533203 77.80312347412109 146.6122741699219 78.17649841308594 146.4263610839844 C 78.63848114013672 146.1963043212891 79.11619567871094 145.9584197998047 79.44970703125 145.7127075195313 C 79.80105590820313 145.453857421875 79.82560729980469 145.3111724853516 79.82475280761719 145.2736053466797 C 79.82321929931641 145.2049560546875 79.72878265380859 144.5674133300781 76.93058776855469 143.3270568847656 C 73.283203125 141.7982940673828 67.72515106201172 139.6135864257813 62.34988403320313 137.5007171630859 C 57.24973678588867 135.4959869384766 52.43242645263672 133.6024322509766 49.41812515258789 132.3393707275391 L 49.38699340820313 132.3263397216797 L 49.35751342773438 132.3098754882813 C 48.33368682861328 131.7382507324219 47.17314529418945 131.4205932617188 46.00096130371094 131.3909912109375 C 44.43526458740234 131.3929748535156 42.85851287841797 132.0399169921875 40.67765426635742 132.9347991943359 L 40.58674621582031 132.9721069335938 L 40.58064651489258 132.974609375 L 40.57449340820313 132.9769744873047 C 37.54964447021484 134.1409912109375 33.30416488647461 135.7447967529297 28.80939483642578 137.4427947998047 C 23.79256439208984 139.3379974365234 18.60493469238281 141.2977294921875 14.73264503479004 142.7906951904297 C 11.54423522949219 144.0055999755859 11.04130458831787 144.7972564697266 11.02530479431152 145.1610107421875 C 11.00555515289307 145.6096343994141 11.6258544921875 146.4570007324219 14.69323539733887 147.9463500976563 C 21.51309585571289 151.2601928710938 34.24937438964844 156.0707550048828 39.68800354003906 158.1249542236328 C 40.40398406982422 158.3953857421875 40.96951675415039 158.6089782714844 41.36331558227539 158.7595825195313 L 41.37184524536133 158.7628479003906 L 41.38027572631836 158.766357421875 C 42.67625045776367 159.3077239990234 44.04520034790039 159.6002197265625 45.44912338256836 159.6358184814453 C 46.97790908813477 159.5972290039063 48.50801467895508 159.2148284912109 49.87516403198242 158.5296173095703 L 49.88466644287109 158.5248565673828 L 49.89433670043945 158.5204315185547 C 52.78885650634766 157.1958312988281 59.92362594604492 154.1876831054688 72.93226623535156 148.7405700683594 L 73.76400756835938 148.3922882080078 L 73.76400756835938 149.2940063476563 L 73.76400756835938 156.3999938964844 L 73.76400756835938 156.4147796630859 L 73.76327514648438 156.4295349121094 C 73.71389770507813 157.4313507080078 73.32138824462891 158.3974304199219 72.65804290771484 159.1497802734375 L 72.64694213867188 159.1623687744141 L 72.63515472412109 159.1743316650391 L 71.47381591796875 160.3516693115234 C 71.1746826171875 160.6558685302734 71.17621612548828 161.1493072509766 71.47948455810547 161.4539642333984 L 74.73249816894531 164.7570495605469 C 74.87065124511719 164.8993530273438 75.06364440917969 164.9809722900391 75.26199340820313 164.9809722900391 M 41.90727233886719 157.2264251708984 C 41.51643753051758 157.0769805908203 40.95399475097656 156.8644714355469 40.20392608642578 156.5812683105469 L 40.16328430175781 156.56591796875 C 35.22164535522461 154.6986846923828 22.09498405456543 149.7386779785156 15.37170505523682 146.4706268310547 L 15.36543464660645 146.4675903320313 L 15.35924530029297 146.4644012451172 C 14.58343505859375 146.0647583007813 14.52473449707031 145.5030212402344 14.5355052947998 145.2800445556641 C 14.5559253692627 144.8573608398438 14.83683490753174 144.4979400634766 15.2869348526001 144.3186187744141 L 15.2898645401001 144.3174438476563 L 15.29279518127441 144.3163146972656 C 18.92832565307617 142.9119110107422 23.77607536315918 141.0810699462891 28.46422576904297 139.3105010986328 L 29.43798446655273 138.9427185058594 C 33.68213272094727 137.3395233154297 38.07049560546875 135.6818542480469 41.13057327270508 134.5055541992188 L 41.25008773803711 134.4574279785156 C 42.7213249206543 133.7085113525391 44.29815673828125 133.2270812988281 45.93709564208984 133.0264587402344 L 45.98314666748047 133.0208282470703 L 46.02950668334961 133.0223388671875 C 46.96237564086914 133.0526885986328 47.88075637817383 133.3172454833984 48.68679809570313 133.7876434326172 C 48.72830200195313 133.8083190917969 48.77375030517578 133.8292694091797 48.81899642944336 133.8486785888672 C 51.79993438720703 135.0984802246094 56.5284538269043 136.9584655761719 61.53460311889648 138.9276428222656 L 61.80648422241211 139.0345916748047 C 66.90192413330078 141.037353515625 74.51792144775391 144.1057281494141 74.59283447265625 144.1359100341797 C 75.37517547607422 144.4488525390625 75.49550628662109 144.9364318847656 75.49760437011719 145.19921875 C 75.49971771240234 145.4628295898438 75.38612365722656 145.9540710449219 74.60181427001953 146.2824096679688 C 74.38150787353516 146.3746948242188 52.53279495239258 155.5280456542969 49.24081420898438 157.0355224609375 L 49.22372436523438 157.0433502197266 L 49.2061767578125 157.0500946044922 C 48.02222442626953 157.5049438476563 46.78496551513672 157.8242797851563 45.52876663208008 157.9992523193359 L 45.47780609130859 158.00634765625 L 45.42637634277344 158.0046691894531 C 44.21042633056641 157.9648895263672 43.02643966674805 157.7030487060547 41.90727233886719 157.2264251708984 M 46.3515625 184.7965087890625 C 46.22557067871094 184.7965087890625 46.09814071655273 184.7956695556641 45.97199630737305 184.7939758300781 C 32.51999664306641 184.7939758300781 25.21999549865723 177.2559814453125 24.91999435424805 176.9349822998047 C 24.66982460021973 176.6696472167969 24.5306453704834 176.3186492919922 24.5309944152832 175.9539794921875 L 24.5309944152832 158.6339569091797 C 24.53005409240723 158.1647186279297 24.76098442077637 157.7253112792969 25.14799499511719 157.4599609375 C 25.38014602661133 157.3008880615234 25.65145683288574 157.2193908691406 25.92475700378418 157.2193908691406 C 26.10170936584473 157.2193908691406 26.27951812744141 157.2535705566406 26.44799423217773 157.3229827880859 C 29.41899490356445 158.5469818115234 32.6559944152832 159.6479949951172 36.40199661254883 160.9229888916016 C 37.75999450683594 161.3819885253906 39.17599487304688 161.8659820556641 40.65999603271484 162.3819885253906 C 42.43573379516602 163.0329284667969 44.30887603759766 163.3784790039063 46.19999313354492 163.4039916992188 L 46.20000457763672 163.4040069580078 C 46.29108428955078 163.4067687988281 46.38193130493164 163.4081573486328 46.47289276123047 163.4081573486328 C 47.85893249511719 163.4081268310547 49.22769927978516 163.0871887207031 50.47099304199219 162.4689788818359 C 50.50994491577148 162.4478607177734 50.55000305175781 162.4288177490234 50.59099578857422 162.4119873046875 C 52.35299682617188 161.6739959716797 54.48199462890625 160.6679840087891 56.73599624633789 159.6019897460938 C 59.05299377441406 158.5059967041016 61.6819953918457 157.2639923095703 64.38199615478516 156.0899963378906 C 64.55828857421875 156.0132904052734 64.74555206298828 155.9754791259766 64.93208312988281 155.9754791259766 C 65.20149230957031 155.9754791259766 65.46933746337891 156.0543975830078 65.69999694824219 156.2089996337891 L 65.69999694824219 156.208984375 C 66.09378814697266 156.4733276367188 66.32973480224609 156.9167175292969 66.32899475097656 157.3910064697266 L 66.32899475097656 175.9539947509766 C 66.32927703857422 176.3130187988281 66.19431304931641 176.6589660644531 65.95098114013672 176.9229583740234 C 60.67320251464844 181.9792633056641 53.65081405639648 184.7965087890625 46.3515625 184.7965087890625 Z M 27.31499481201172 160.6999969482422 L 27.31500434875488 175.3359985351563 C 32.40410614013672 179.6188659667969 38.83788681030273 181.9623718261719 45.47891616821289 181.9622192382813 C 45.64127731323242 181.9622039794922 45.80440521240234 181.9608001708984 45.96699523925781 181.9579925537109 C 46.02663421630859 181.9584045410156 46.08535003662109 181.9586029052734 46.14495086669922 181.9586029052734 C 52.55251312255859 181.9586029052734 58.74106979370117 179.6087036132813 63.53500366210938 175.3509979248047 L 63.53400421142578 175.3489990234375 L 63.53400421142578 159.5489959716797 C 61.5570068359375 160.4409942626953 59.64700317382813 161.3430023193359 57.91200637817383 162.1640014648438 C 55.65400314331055 163.2310028076172 53.52000427246094 164.2409973144531 51.71200561523438 165.0000152587891 C 50.08640289306641 165.8111114501953 48.29595947265625 166.2323913574219 46.48181533813477 166.2323913574219 C 46.3877067565918 166.2323913574219 46.29320907592773 166.2312622070313 46.19899368286133 166.2289886474609 L 46.19900512695313 166.22900390625 C 43.99465560913086 166.2082366943359 41.81024551391602 165.8091125488281 39.74099349975586 165.0489959716797 C 38.27800369262695 164.5399932861328 36.86700439453125 164.0609893798828 35.5150032043457 163.5999908447266 C 32.50399398803711 162.5769958496094 29.81499481201172 161.6629943847656 27.31499481201172 160.6999969482422 Z M 75.26199340820313 165.5809783935547 C 74.9002685546875 165.5809783935547 74.55396270751953 165.4345245361328 74.30199432373047 165.1749877929688 L 71.05199432373047 161.8749694824219 C 70.51754760742188 161.338134765625 70.51487731933594 160.4711151123047 71.04599761962891 159.9309844970703 L 72.20799255371094 158.7529754638672 C 72.7840576171875 158.099609375 73.12112426757813 157.2699737548828 73.16400146484375 156.3999938964844 L 73.16400146484375 149.2940063476563 C 60.76700592041016 154.4850158691406 53.12900543212891 157.7000122070313 50.14400482177734 159.0660247802734 C 48.68445587158203 159.7975463867188 47.08114624023438 160.1970977783203 45.44900512695313 160.2360076904297 C 43.97121429443359 160.2003936767578 42.51300430297852 159.8897705078125 41.14900588989258 159.3200073242188 C 37.86199569702148 158.0630035400391 22.20400428771973 152.2630004882813 14.43100452423096 148.4860076904297 C 9.24300479888916 145.9670104980469 8.908004760742188 144.3680114746094 14.51900482177734 142.2300109863281 C 21.84100532531738 139.4070129394531 33.9430046081543 134.8860015869141 40.35900497436523 132.4170074462891 C 42.65500640869141 131.4750061035156 44.29900360107422 130.7910003662109 46.00800323486328 130.7909851074219 C 47.28480529785156 130.8218688964844 48.53485488891602 131.1633911132813 49.65000534057617 131.7859954833984 C 55.87400436401367 134.3939971923828 70.09700775146484 139.8119964599609 77.16800689697266 142.7760009765625 C 83.32399749755859 145.5030059814453 79.18600463867188 146.3990020751953 77.41500854492188 147.5149993896484 L 77.41800689697266 147.5149993896484 L 77.41800689697266 157.8409881591797 L 79.47800445556641 159.9319763183594 C 80.00176239013672 160.4748687744141 79.9986572265625 161.3358917236328 79.47099304199219 161.8749847412109 L 76.22199249267578 165.1749877929688 C 75.97002410888672 165.4345245361328 75.62371826171875 165.5809783935547 75.26199340820313 165.5809783935547 Z M 46.00999450683594 133.6220092773438 C 44.43692398071289 133.8145599365234 42.90998458862305 134.2823638916016 41.49900436401367 135.0040130615234 L 41.35000610351563 135.0640106201172 C 38.33500671386719 136.2230072021484 34.11600494384766 137.8170166015625 29.65000534057617 139.5040130615234 C 24.60900497436523 141.4080047607422 19.39200401306152 143.3760070800781 15.50900459289551 144.8760070800781 C 15.007004737854 145.0760040283203 14.97200489044189 145.5899963378906 15.63400459289551 145.9309997558594 C 22.35100555419922 149.1959991455078 35.47499465942383 154.1529998779297 40.4160041809082 156.0200042724609 C 41.14699554443359 156.2960052490234 41.73199462890625 156.5169982910156 42.13200378417969 156.6699981689453 C 43.18151473999023 157.1184387207031 44.30530548095703 157.36767578125 45.44599533081055 157.4049987792969 L 45.44599533081055 157.4050140380859 C 46.65867614746094 157.236083984375 47.84806442260742 156.9290924072266 48.99100494384766 156.4900054931641 C 52.33000564575195 154.9609985351563 74.37000274658203 145.72900390625 74.37000274658203 145.72900390625 C 75.07700347900391 145.4330139160156 75.07000732421875 144.9730072021484 74.37000274658203 144.6930084228516 C 74.37000274658203 144.6930084228516 66.73899841308594 141.6179962158203 61.58700561523438 139.5930023193359 C 56.46700668334961 137.5790100097656 51.62800598144531 135.677001953125 48.58700561523438 134.4020080566406 C 48.52400588989258 134.375 48.46100616455078 134.3460083007813 48.40000534057617 134.3150024414063 C 47.67386627197266 133.8876800537109 46.85210418701172 133.6494140625 46.00999450683594 133.6220092773438 Z"/>
    </g>
    <path id="大数据" class="cls-4" d="M197.884,232.046q-.3,0-.6.022l-11.093-12.827,7.863-9.591a8.39,8.39,0,0,0,3.833.92,8.133,8.133,0,1,0-8.3-8.131,7.988,7.988,0,0,0,1.8,5.056l-7.474,9.116-8.4-9.709q-.034-.041-.071-.079l-.011-.011-.048-.047-.047-.043-.014-.013a1.733,1.733,0,0,0-.991-.414h-.274a1.749,1.749,0,0,0-.628.165,1.712,1.712,0,0,0-.427.288l-.016.015-.043.042-.048.051-.008.008q-.036.04-.069.082l-7.929,9.792-7.968-9.168a7.991,7.991,0,0,0,1.866-5.13,8.3,8.3,0,1,0-8.3,8.131,8.391,8.391,0,0,0,3.746-.876l8.469,9.745L152.33,232.249a8.462,8.462,0,0,0-1.843-.2,8.243,8.243,0,1,0,5.051,1.684l9.445-11.665,4.312,4.961a7,7,0,0,0-2.342,5.214,7.232,7.232,0,1,0,14.464,0,6.979,6.979,0,0,0-1.938-4.819l4.5-5.494,9.712,11.231a8.106,8.106,0,0,0-4.114,7.018,8.3,8.3,0,1,0,8.3-8.131Zm0-34.354a4.749,4.749,0,1,1-4.847,4.748A4.8,4.8,0,0,1,197.884,197.692ZM145.64,202.44a4.848,4.848,0,1,1,4.847,4.748A4.848,4.848,0,0,1,145.64,202.44Zm4.847,42.485a4.749,4.749,0,1,1,4.847-4.748,4.8,4.8,0,0,1-4.846,4.747Zm23.7-8.985a3.7,3.7,0,1,1,3.777-3.7,3.743,3.743,0,0,1-3.778,3.7Zm2.393-10.383a7.385,7.385,0,0,0-4.18-.18l-5.226-6.013,7.057-8.715,7.48,8.65Zm21.305,19.368a4.749,4.749,0,1,1,4.847-4.748,4.8,4.8,0,0,1-4.848,4.747Z" transform="translate(-52.186 -193.308)"/>
    <g id="移动应用解决方案" transform="translate(179.185)">
      <path id="Path_5" data-name="Path 5" class="cls-4" d="M182.883,115.933h-8.952a1.377,1.377,0,0,1,0-2.754h8.952a1.377,1.377,0,0,1,0,2.754" transform="translate(-161.664 -106.547)"/>
      <path id="Path_6" data-name="Path 6" class="cls-4" d="M.815,4.054V55.939A4.057,4.057,0,0,0,4.875,60H33.386a4.065,4.065,0,0,0,4.068-4.061V4.054A4.065,4.065,0,0,0,33.385,0H4.875A4.065,4.065,0,0,0,.815,4.054ZM12.326,3.033H30.539a3.645,3.645,0,0,1,3.648,3.643V53.317a3.645,3.645,0,0,1-3.648,3.643H7.729a3.645,3.645,0,0,1-3.648-3.643V6.676A3.645,3.645,0,0,1,7.729,3.033h4.6Zm0,0"/>
      <path id="Path_7" data-name="Path 7" class="cls-4" d="M265.776,157.5a2.773,2.773,0,1,0,2.773-2.769,2.773,2.773,0,0,0-2.773,2.769Zm6.951-41.17a1.341,1.341,0,1,0,1.339-1.271,1.341,1.341,0,0,0-1.339,1.271ZM302.194,154a1.377,1.377,0,0,1-1.375-1.373v-8.938a1.369,1.369,0,0,1,.691-1.19,1.392,1.392,0,0,1,1.375,0,1.369,1.369,0,0,1,.691,1.19v8.938A1.383,1.383,0,0,1,302.194,154" transform="translate(-249.411 -108.317)"/>
      <path id="Path_8" data-name="Path 8" class="cls-4" d="M700.444,397.317H684.651v3.253h13.181a3.645,3.645,0,0,1,3.648,3.643v22.781a3.645,3.645,0,0,1-3.648,3.643H684.651V433.9h15.807a4.056,4.056,0,0,0,4.06-4.054V401.378a4.056,4.056,0,0,0-4.06-4.054" transform="translate(-643.704 -374.037)"/>
    </g>
    <g id="行业" transform="translate(206.277 -64.437)">
      <g id="Path_9" data-name="Path 9" class="cls-3" transform="translate(-118.731)">
        <path class="cls-7" d="M 197.6638031005859 83.47587585449219 C 197.5410308837891 83.47587585449219 197.419677734375 83.45399475097656 197.3031311035156 83.41083526611328 C 195.5604248046875 82.77628326416016 194.0787963867188 81.6385498046875 193.0168762207031 80.12006378173828 C 191.8747253417969 78.53227996826172 191.2759704589844 76.66301727294922 191.2830352783203 74.71109771728516 C 191.2786712646484 72.37928009033203 192.1080627441406 70.11882781982422 193.6184692382813 68.34449005126953 C 195.3173675537109 66.34144592285156 197.6916198730469 65.09291839599609 200.3042144775391 64.82845306396484 C 200.6406707763672 64.79068756103516 200.9795684814453 64.77170562744141 201.3147583007813 64.77170562744141 C 202.6081390380859 64.77170562744141 203.8612670898438 65.04248809814453 205.0392150878906 65.57645416259766 C 206.7709045410156 66.4241943359375 208.2228240966797 67.73868560791016 209.2379455566406 69.37796020507813 C 209.3844757080078 69.61458587646484 209.4300842285156 69.89411926269531 209.3663635253906 70.16506958007813 C 209.3026428222656 70.43600463867188 209.1372222900391 70.66591644287109 208.9005889892578 70.81244659423828 C 208.7354888916016 70.91466522216797 208.5462341308594 70.96870422363281 208.3532867431641 70.96871948242188 C 207.9891510009766 70.96871948242188 207.657470703125 70.7841796875 207.4660797119141 70.47506713867188 C 206.5911102294922 69.03889465332031 205.3065643310547 67.93622589111328 203.7524719238281 67.28810882568359 L 203.7451629638672 67.28506469726563 L 203.7377014160156 67.28240966796875 C 202.9344940185547 66.99615478515625 202.0948638916016 66.85100555419922 201.2421417236328 66.85100555419922 C 200.5022125244141 66.85100555419922 199.7683715820313 66.96109771728516 199.0610046386719 67.17819976806641 C 197.1349487304688 67.74359893798828 195.5011138916016 69.00438690185547 194.4639739990234 70.72727966308594 C 193.5556793212891 72.2344970703125 193.1923522949219 74.02412414550781 193.4409942626953 75.76638031005859 C 193.737060546875 77.67276000976563 194.7442474365234 79.36210632324219 196.2775115966797 80.52689361572266 C 196.8062438964844 80.93291473388672 197.3955841064453 81.24834442138672 198.0281219482422 81.46356964111328 C 198.2868194580078 81.56028747558594 198.4927215576172 81.75165557861328 198.6080932617188 82.00275421142578 C 198.7239685058594 82.25490570068359 198.7346954345703 82.537109375 198.6383056640625 82.79734802246094 C 198.4880065917969 83.20317840576172 198.0963897705078 83.47584533691406 197.6638031005859 83.47587585449219 Z M 227.1337432861328 83.46123504638672 C 226.6839904785156 83.46125030517578 226.2856292724609 83.17444610595703 226.1424407958984 82.74758911132813 C 226.0144500732422 82.36116790771484 226.1253967285156 81.93778228759766 226.4253387451172 81.66319274902344 C 226.7572326660156 81.45864105224609 227.1120300292969 81.29022979736328 227.4803314208984 81.16242980957031 L 227.5008850097656 81.15529632568359 L 227.5201721191406 81.14528656005859 C 229.8237152099609 79.94981384277344 231.3347625732422 77.59695434570313 231.463623046875 75.00489807128906 C 231.5583801269531 72.69718933105469 230.6349029541016 70.48366546630859 228.9300842285156 68.92930603027344 C 227.467041015625 67.57522583007813 225.5612640380859 66.82866668701172 223.5654754638672 66.82866668701172 C 222.9046173095703 66.82866668701172 222.2445068359375 66.91201782226563 221.6034851074219 67.07639312744141 L 221.5944213867188 67.07872772216797 L 221.5855255126953 67.08160400390625 C 219.8340301513672 67.64918518066406 218.3418121337891 68.82764434814453 217.3837738037109 70.39990997314453 L 217.3813018798828 70.40397644042969 L 217.3789520263672 70.40812683105469 C 217.1966705322266 70.72984313964844 216.8674926757813 70.93486022949219 216.4984130859375 70.95652008056641 C 216.4817810058594 70.95738983154297 216.4634399414063 70.95787048339844 216.4452056884766 70.95787048339844 C 216.0757446289063 70.9578857421875 215.7322387695313 70.758544921875 215.5487213134766 70.43764495849609 C 215.3538665771484 70.09689331054688 215.367431640625 69.68190002441406 215.5841217041016 69.3546142578125 L 215.5857238769531 69.35221862792969 L 215.5872650146484 69.34978485107422 C 216.3222045898438 68.19212341308594 217.2547149658203 67.19279479980469 218.3589019775391 66.37953948974609 C 219.4603881835938 65.58045196533203 220.7509307861328 65.05000305175781 222.0975494384766 64.84227752685547 L 222.2266998291016 64.82748413085938 C 222.6589660644531 64.77127838134766 223.0980377197266 64.74276733398438 223.5316925048828 64.74276733398438 C 225.6987152099609 64.74276733398438 227.7677154541016 65.42702484130859 229.5150146484375 66.72158050537109 C 231.2766876220703 68.02677917480469 232.5390014648438 69.82838439941406 233.1654815673828 71.931640625 C 233.8800354003906 74.32196044921875 233.6304931640625 76.85220336914063 232.462890625 79.05656433105469 C 231.3916625976563 81.09853363037109 229.6063079833984 82.64641571044922 227.4344177246094 83.41688537597656 C 227.3362426757813 83.44631958007813 227.2351226806641 83.46123504638672 227.1337432861328 83.46123504638672 Z"/>
        <path class="cls-8" d="M 197.6637878417969 83.17588043212891 C 197.9714813232422 83.17585754394531 198.2500457763672 82.98188018798828 198.3569793701172 82.69315338134766 C 198.425537109375 82.508056640625 198.4179077148438 82.30735778808594 198.3354949951172 82.12801361083984 C 198.2540283203125 81.95071411132813 198.1091156005859 81.81529235839844 197.9269866943359 81.74604797363281 C 197.2650909423828 81.52027893066406 196.6483154296875 81.18988800048828 196.0960540771484 80.76577758789063 C 194.5006103515625 79.55376434326172 193.4526062011719 77.79593658447266 193.1450958251953 75.81608581542969 L 193.14453125 75.81242370605469 L 193.1440124511719 75.80876922607422 C 192.8856353759766 73.99831390380859 193.26318359375 72.13864898681641 194.2069549560547 70.57255554199219 C 195.2824554443359 68.78592681884766 196.976318359375 67.47829437255859 198.9769592285156 66.89018249511719 C 199.7116394042969 66.66513061523438 200.4737548828125 66.55101013183594 201.2421417236328 66.55101013183594 C 202.1292419433594 66.55101013183594 203.0027618408203 66.70200347900391 203.8384246826172 66.99981689453125 L 203.8533325195313 67.005126953125 L 203.8679351806641 67.01123046875 C 205.4809112548828 67.68389892578125 206.8141174316406 68.82833862304688 207.7211456298828 70.317138671875 C 207.8574676513672 70.53728485107422 208.0937805175781 70.66872406005859 208.353271484375 70.66871643066406 C 208.4903869628906 70.66870880126953 208.6250305175781 70.63021850585938 208.7426452636719 70.55738067626953 C 208.9111633300781 70.45303344726563 209.0289611816406 70.28931427001953 209.0743255615234 70.09638977050781 C 209.1197052001953 69.90345001220703 209.0872344970703 69.70438385009766 208.9828948974609 69.53589630126953 C 207.9982604980469 67.94587707519531 206.5903930664063 66.67070770263672 204.9111328125 65.84777069091797 C 203.7735748291016 65.33281707763672 202.5636138916016 65.07170867919922 201.3147583007813 65.07170867919922 C 200.99072265625 65.07170867919922 200.6631011962891 65.09005737304688 200.3409729003906 65.12623596191406 L 200.3376922607422 65.12660980224609 L 200.3344116210938 65.12693786621094 C 197.7994384765625 65.38353729248047 195.4957122802734 66.59498596191406 193.8469085693359 68.53894805908203 C 192.3827819824219 70.25891876220703 191.5787963867188 72.45010375976563 191.5830383300781 74.71217346191406 C 191.5762023925781 76.60044860839844 192.1554260253906 78.40876007080078 193.2581024169922 79.94161987304688 L 193.2604217529297 79.94486999511719 L 193.2627105712891 79.94813537597656 C 194.2891540527344 81.41587066650391 195.7212677001953 82.51557922363281 197.4073181152344 83.12950897216797 C 197.4904022216797 83.16028594970703 197.5766906738281 83.17588806152344 197.6637725830078 83.17588043212891 L 197.6637878417969 83.17588043212891 M 227.1337432861328 83.16123962402344 C 227.2036437988281 83.16123962402344 227.2735443115234 83.15122222900391 227.3416595458984 83.1314697265625 C 229.4386291503906 82.38542175292969 231.1624603271484 80.88961791992188 232.1977844238281 78.91614532470703 C 233.3282928466797 76.78181457519531 233.5699005126953 74.33194732666016 232.8779754638672 72.01728057861328 C 232.2701721191406 69.97674560546875 231.0455169677734 68.22887420654297 229.3364105224609 66.96262359619141 C 227.6411743164063 65.70664978027344 225.6339416503906 65.04277038574219 223.5316925048828 65.04277038574219 C 223.1109008789063 65.04277038574219 222.6848602294922 65.07042694091797 222.265380859375 65.12498474121094 L 222.1095275878906 65.14404296875 C 220.8221282958984 65.34815216064453 219.5888977050781 65.85785675048828 218.5368041992188 66.62109375 C 217.462646484375 67.41223907470703 216.5554809570313 68.3843994140625 215.8405303955078 69.51057434082031 L 215.8374481201172 69.51543426513672 L 215.8342742919922 69.52022552490234 C 215.6805114746094 69.75246429443359 215.6708831787109 70.04693603515625 215.8091430664063 70.28872680664063 C 215.9393615722656 70.51643371582031 216.1830749511719 70.65789031982422 216.4452209472656 70.65786743164063 C 216.4581909179688 70.65786743164063 216.4712371826172 70.65752410888672 216.4808349609375 70.65702819824219 C 216.7478790283203 70.641357421875 216.9860534667969 70.49302673339844 217.1179351806641 70.26024627685547 L 217.1226348876953 70.25194549560547 L 217.1275939941406 70.24379730224609 C 218.1229553222656 68.61029052734375 219.6732940673828 67.38591003417969 221.4930419921875 66.79621887207031 L 221.5108337402344 66.79044342041016 L 221.5289611816406 66.78580474853516 C 222.1943054199219 66.61517333984375 222.8794860839844 66.52866363525391 223.5654754638672 66.52866363525391 C 225.6370391845703 66.52866363525391 227.6151885986328 67.30357360839844 229.1322174072266 68.70761871337891 C 230.9027252197266 70.32186889648438 231.8617706298828 72.62067413330078 231.7635040283203 75.01461029052734 L 231.7633819580078 75.01719665527344 L 231.7632598876953 75.01979064941406 C 231.6291198730469 77.71796417236328 230.0562133789063 80.16714477539063 227.6583709716797 81.41156005859375 L 227.6197662353516 81.43159484863281 L 227.5786743164063 81.44584655761719 C 227.2406005859375 81.56316375732422 226.9145812988281 81.71672821044922 226.6087646484375 81.90264129638672 C 226.4105682373047 82.09758758544922 226.3393096923828 82.38784027099609 226.4268646240234 82.65218353271484 C 226.5289916992188 82.9566650390625 226.8130645751953 83.16124725341797 227.1337432861328 83.16123962402344 L 227.1337432861328 83.16123962402344 M 197.663818359375 83.77587127685547 C 197.5093383789063 83.77587890625 197.352294921875 83.74895477294922 197.1989440917969 83.69216918945313 C 195.4088439941406 83.04035949707031 193.8628234863281 81.85319519042969 192.7710266113281 80.29199981689453 C 191.6015777587891 78.66630554199219 190.9757843017578 76.71262359619141 190.9830322265625 74.71000671386719 C 190.9785308837891 72.30648040771484 191.8320617675781 69.98024749755859 193.3900299072266 68.1500244140625 C 195.130126953125 66.09841918945313 197.5975189208984 64.8009033203125 200.2740020751953 64.52998352050781 L 200.2740020751953 64.52999877929688 C 200.6205749511719 64.49105834960938 200.9680938720703 64.47171020507813 201.3147583007813 64.47171020507813 C 202.6396026611328 64.47171020507813 203.9533538818359 64.75417327880859 205.1670074462891 65.30500030517578 C 206.9490509033203 66.17639923095703 208.4486389160156 67.53352355957031 209.4930114746094 69.22000885009766 C 209.8832092285156 69.85015869140625 209.6886749267578 70.67731475830078 209.0585174560547 71.0675048828125 C 208.8384704589844 71.20375061035156 208.5943908691406 71.26870727539063 208.3533020019531 71.26871490478516 C 207.9039459228516 71.26872253417969 207.4649658203125 71.04311370849609 207.2110137939453 70.63299560546875 C 206.3736114501953 69.25849914550781 205.1224822998047 68.18449401855469 203.6369934082031 67.56499481201172 C 202.8633880615234 67.28929138183594 202.0530395507813 67.15100860595703 201.2421417236328 67.15100860595703 C 200.5370941162109 67.15100860595703 199.8316650390625 67.25547790527344 199.1490173339844 67.46499633789063 C 197.296875 68.00872039794922 195.7165222167969 69.22823333740234 194.7209930419922 70.88199615478516 C 193.8455810546875 72.33466339111328 193.4983673095703 74.04496002197266 193.7379913330078 75.7239990234375 C 194.0200805664063 77.54017639160156 194.9954528808594 79.17619323730469 196.4589996337891 80.28800964355469 C 196.9630432128906 80.67507934570313 197.5272064208984 80.97674560546875 198.1289978027344 81.18100738525391 C 198.822509765625 81.43770599365234 199.1764678955078 82.20808410644531 198.9196319580078 82.90155029296875 C 198.7195892333984 83.44168090820313 198.2079467773438 83.77584075927734 197.663818359375 83.77587127685547 Z M 227.1337432861328 83.76123809814453 C 226.5700836181641 83.76124572753906 226.0463714599609 83.40451812744141 225.8580169677734 82.84299468994141 C 225.6896209716797 82.33460998535156 225.8420715332031 81.77479553222656 226.2449951171875 81.42200469970703 C 226.6026000976563 81.19924926757813 226.9839630126953 81.01712036132813 227.3819885253906 80.87900543212891 C 229.5999603271484 79.72794342041016 231.0399169921875 77.48576354980469 231.1640014648438 74.98999786376953 C 231.2547607421875 72.77931976318359 230.3629608154297 70.64169311523438 228.7279663085938 69.15099334716797 C 227.3065185546875 67.83543395996094 225.4566955566406 67.12866973876953 223.5654754638672 67.12866973876953 C 222.9360961914063 67.12866973876953 222.3023529052734 67.20688629150391 221.6779937744141 67.36699676513672 C 219.9938354492188 67.91275787353516 218.5611724853516 69.04420471191406 217.6399688720703 70.55600738525391 C 217.4083099365234 70.96490478515625 216.9851226806641 71.22846984863281 216.5159759521484 71.25599670410156 C 216.4923400878906 71.25724792480469 216.4687194824219 71.25786590576172 216.4452209472656 71.25787353515625 C 215.9689636230469 71.25789642333984 215.5265045166016 71.00313568115234 215.2882995605469 70.58657836914063 C 215.0383605957031 70.14949035644531 215.0560150146484 69.60883331298828 215.333984375 69.18899536132813 C 216.0859527587891 68.00453948974609 217.0513305664063 66.97000885009766 218.1809844970703 66.13798522949219 C 219.3637390136719 65.27994537353516 220.7395782470703 64.72632598876953 222.1869964599609 64.52599334716797 L 222.1880035400391 64.52999877929688 C 222.6384887695313 64.47141265869141 223.0876922607422 64.44277191162109 223.5316925048828 64.44277191162109 C 228.056640625 64.44277191162109 232.1313781738281 67.40903472900391 233.4530029296875 71.84600067138672 C 234.185546875 74.2965087890625 233.9251556396484 76.93680572509766 232.7279968261719 79.19698333740234 C 231.6244964599609 81.30044555664063 229.7672271728516 82.90948486328125 227.5279998779297 83.70199584960938 C 227.3968811035156 83.74211883544922 227.2642517089844 83.76123809814453 227.1337432861328 83.76123809814453 Z"/>
      </g>
      <g id="Path_10" data-name="Path 10" class="cls-3" transform="translate(0 -104.289)">
        <path class="cls-7" d="M 65.98238372802734 210.4299926757813 C 65.55298614501953 210.4299926757813 65.13670349121094 210.3047485351563 64.77854156494141 210.0678100585938 C 64.239013671875 209.7140655517578 63.9508171081543 209.0762176513672 64.04096984863281 208.4393157958984 C 65.47126007080078 202.4090728759766 66.90161895751953 196.3798217773438 68.33190155029297 190.3522491455078 L 68.33617401123047 190.3342742919922 L 68.33820343017578 190.31591796875 C 68.38729095458984 189.8714447021484 68.59902954101563 189.4637908935547 68.93442535400391 189.1680145263672 C 69.29456329345703 188.8505706787109 69.75736236572266 188.6743927001953 70.23751068115234 188.6719818115234 L 79.28600311279297 188.6719970703125 L 79.30530548095703 188.6718597412109 C 79.64257049560547 188.6718597412109 79.96150970458984 188.8353424072266 80.15845489501953 189.1091613769531 C 80.40837097167969 189.4567718505859 80.41616058349609 189.9292907714844 80.17779541015625 190.2849578857422 C 79.98202514648438 190.5775451660156 79.65517425537109 190.7521209716797 79.30335235595703 190.7521514892578 L 79.28828430175781 190.7520294189453 L 70.61201477050781 190.7519989013672 L 70.37480926513672 190.7519989013672 L 70.32009887695313 190.9828033447266 L 68.30509948730469 199.4828033447266 L 66.29010009765625 207.9828033447266 L 66.20258331298828 208.3520050048828 L 66.58201599121094 208.3520050048828 L 71.30738067626953 208.3520050048828 C 71.86682891845703 208.3865814208984 72.29296875 208.8507080078125 72.27886962890625 209.4120178222656 C 72.26472473144531 209.9759216308594 71.81178283691406 210.4195709228516 71.24771118164063 210.4220123291016 C 70.70452117919922 210.4264221191406 70.1099853515625 210.4284820556641 69.37551879882813 210.4284820556641 C 68.99534606933594 210.4284820556641 68.61515045166016 210.4279632568359 68.23496246337891 210.4274444580078 C 67.85459899902344 210.4269409179688 67.47425079345703 210.4264221191406 67.09394073486328 210.4264221191406 C 66.75614929199219 210.4264221191406 66.41869354248047 210.4268188476563 66.08097076416016 210.4279937744141 L 66.07546997070313 210.4280090332031 L 66.06996917724609 210.4282379150391 C 66.04075622558594 210.4294128417969 66.01153564453125 210.4299926757813 65.98238372802734 210.4299926757813 Z M 121.3899688720703 210.4293212890625 C 121.348991394043 210.4293212890625 121.3074722290039 210.4282989501953 121.2665252685547 210.4263153076172 L 121.2592620849609 210.4259643554688 L 121.2519989013672 210.4259643554688 L 116.2909927368164 210.4259796142578 L 116.285530090332 210.4259796142578 L 116.2800827026367 210.4261779785156 C 116.2666244506836 210.4266815185547 116.2531661987305 210.4269104003906 116.2397308349609 210.4269104003906 C 115.9687652587891 210.4269256591797 115.7077713012695 210.3279876708984 115.5048217773438 210.1483459472656 C 115.1927947998047 209.8668823242188 115.0834045410156 209.427001953125 115.2282104492188 209.029541015625 C 115.3724746704102 208.6335754394531 115.7369766235352 208.36767578125 116.1577072143555 208.3509826660156 L 120.8519897460938 208.3509826660156 L 121.2314300537109 208.3509826660156 L 121.1439056396484 207.9817810058594 C 119.7992248535156 202.3097534179688 118.4538955688477 196.6380767822266 117.1078796386719 190.9667053222656 L 117.0531234741211 190.7359924316406 L 116.8159942626953 190.7359924316406 L 108.1779861450195 190.7359924316406 L 108.172981262207 190.7359924316406 L 108.1679916381836 190.7361602783203 C 108.1559295654297 190.7365570068359 108.1438598632813 190.7367553710938 108.1318435668945 190.7367553710938 C 107.890510559082 190.7367553710938 107.6529998779297 190.6547698974609 107.4630661010742 190.5058746337891 C 107.1525573730469 190.2611236572266 107.0106811523438 189.8641204833984 107.0921478271484 189.4803924560547 L 107.1081390380859 189.4229583740234 C 107.2325820922852 188.9730377197266 107.6455154418945 188.6584777832031 108.1123199462891 188.6579895019531 L 117.2920913696289 188.6579895019531 C 118.1903915405273 188.6809387207031 118.9453353881836 189.3409423828125 119.0877838134766 190.2285308837891 L 119.089469909668 190.2390594482422 L 119.091911315918 190.2494506835938 C 119.9433059692383 193.8812713623047 120.8193130493164 197.5692138671875 121.6664810180664 201.1357269287109 C 122.2405090332031 203.5523223876953 122.8340072631836 206.0508728027344 123.4145812988281 208.5098419189453 C 123.4670791625977 209.2786254882813 123.0225601196289 209.9806671142578 122.3029251098633 210.2615203857422 C 122.0119323730469 210.3725891113281 121.7042694091797 210.4293212890625 121.3905715942383 210.4293212890625 C 121.3903732299805 210.4293212890625 121.3901672363281 210.4293212890625 121.3899688720703 210.4293212890625 Z M 93.624755859375 199.6632843017578 C 92.09483337402344 199.6632843017578 90.60008239746094 199.3707275390625 89.18202972412109 198.7937774658203 C 87.75208282470703 198.2119598388672 86.46825408935547 197.3682098388672 85.36620330810547 196.2859649658203 C 83.81301879882813 194.7721405029297 82.72598266601563 192.8579864501953 82.22179412841797 190.7496795654297 C 81.71760559082031 188.6413726806641 81.82105255126953 186.4425201416016 82.52094268798828 184.390869140625 C 83.20471954345703 182.4006500244141 84.41820526123047 180.6326904296875 86.02996063232422 179.2787322998047 C 88.03364562988281 177.5893096923828 90.57903289794922 176.6078796386719 93.19766235351563 176.5148315429688 C 93.34341430664063 176.5094604492188 93.48982238769531 176.5067596435547 93.63423156738281 176.5067596435547 C 96.17591094970703 176.5067596435547 98.6939697265625 177.3487701416016 100.7245559692383 178.8776702880859 C 102.4877243041992 180.2040710449219 103.8324432373047 181.9957733154297 104.6134262084961 184.0592041015625 C 105.6665496826172 186.8738403320313 105.5841827392578 189.9418334960938 104.3810806274414 192.6969451904297 C 102.8057403564453 196.2140045166016 99.60214233398438 198.7425994873047 95.81257629394531 199.4583282470703 C 95.09255218505859 199.5943298339844 94.35646057128906 199.6632843017578 93.624755859375 199.6632843017578 Z M 93.16991424560547 178.5924835205078 C 90.69312286376953 178.7091217041016 88.38025665283203 179.7553100585938 86.65724945068359 181.5385284423828 C 83.27008056640625 185.0134887695313 83.11808013916016 190.5993804931641 86.31210327148438 194.2544097900391 C 88.07273101806641 196.2716217041016 90.61736297607422 197.4820098876953 93.29341888427734 197.5751190185547 C 93.40552520751953 197.5790100097656 93.51930236816406 197.5809936523438 93.631591796875 197.5809936523438 C 96.21985626220703 197.5810699462891 98.65511322021484 196.5747680664063 100.48876953125 194.7474975585938 C 102.306022644043 192.9429779052734 103.3166122436523 190.4390563964844 103.2610321044922 187.8781280517578 C 103.205451965332 185.3172149658203 102.0871734619141 182.8594970703125 100.1929397583008 181.1351623535156 C 98.39646911621094 179.4887237548828 96.06426239013672 178.5816192626953 93.62670135498047 178.5816192626953 C 93.47509002685547 178.5816192626953 93.3214111328125 178.5852203369141 93.16991424560547 178.5923461914063 L 93.16991424560547 178.5924835205078 Z"/>
        <path class="cls-8" d="M 65.98238372802734 210.1299896240234 C 66.00755310058594 210.1299896240234 66.03279113769531 210.1294860839844 66.05801391601563 210.1284790039063 L 66.0689697265625 210.1280364990234 L 66.07993316650391 210.1279907226563 C 66.41799926757813 210.1268310546875 66.75581359863281 210.1264190673828 67.09394073486328 210.1264190673828 C 67.47443389892578 210.1264190673828 67.85496520996094 210.1269378662109 68.23548889160156 210.1274566650391 C 68.61550140380859 210.1279602050781 68.99552154541016 210.1284790039063 69.37551879882813 210.1284790039063 C 70.10848999023438 210.1284790039063 70.70225524902344 210.1264343261719 71.24641418457031 210.1220245361328 C 71.64714050292969 210.1202850341797 71.96891021728516 209.8050994873047 71.97897338867188 209.4044799804688 C 71.98890686035156 209.0085601806641 71.69053649902344 208.6806945800781 71.29724884033203 208.6520080566406 L 66.58201599121094 208.6520080566406 L 65.82315063476563 208.6520080566406 L 65.99819183349609 207.9136047363281 L 68.01319122314453 199.4136047363281 L 70.02819061279297 190.9136047363281 L 70.13761901855469 190.4520111083984 L 70.61201477050781 190.4520111083984 L 79.28400421142578 190.4520111083984 L 79.28816223144531 190.4520111083984 L 79.29232025146484 190.4520721435547 L 79.30332946777344 190.4521484375 C 79.55483245849609 190.4521179199219 79.78848266601563 190.3273315429688 79.92858123779297 190.1179504394531 C 80.09759521484375 189.8657684326172 80.09207153320313 189.5307312011719 79.91490173339844 189.2843322753906 C 79.77418518066406 189.0886688232422 79.54629516601563 188.9718475341797 79.30530548095703 188.9718475341797 L 79.29442596435547 188.9719390869141 L 79.29021453857422 188.9720001220703 L 79.28600311279297 188.9720001220703 L 70.23902130126953 188.9719696044922 C 69.83140563964844 188.9740142822266 69.43852233886719 189.1235809326172 69.13285064697266 189.3930206298828 C 68.85358428955078 189.6392974853516 68.67726135253906 189.978759765625 68.63638305664063 190.3488616943359 L 68.63233184814453 190.3855743408203 L 68.62380218505859 190.4215087890625 C 67.19464874267578 196.4442901611328 65.765380859375 202.4689331054688 64.33622741699219 208.494384765625 C 64.26802062988281 209.0123138427734 64.50409698486328 209.5291442871094 64.94406127929688 209.8176116943359 C 65.25298309326172 210.02197265625 65.61202239990234 210.1299896240234 65.98238372802734 210.1299896240234 M 121.3905715942383 210.1293182373047 C 121.6675643920898 210.1293182373047 121.9392242431641 210.0792236328125 122.1938552856445 209.9820404052734 C 122.7829437255859 209.7521362304688 123.1496200561523 209.1817321777344 123.11669921875 208.5537872314453 C 122.5380401611328 206.10302734375 121.9466781616211 203.6134185791016 121.3746109008789 201.2050476074219 C 120.5273895263672 197.6383361816406 119.6513214111328 193.9501800537109 118.7998352050781 190.3179321289063 L 118.7949523925781 190.2971496582031 L 118.7915725708008 190.2760620117188 C 118.6722259521484 189.5323791503906 118.0405426025391 188.9790496826172 117.2882843017578 188.9579925537109 L 108.1126403808594 188.9579925537109 C 107.7800903320313 188.9583282470703 107.4859313964844 189.1824188232422 107.3972930908203 189.5029296875 L 107.3837738037109 189.5516357421875 C 107.3301162719727 189.8211517333984 107.4309768676758 190.0985870361328 107.6481399536133 190.2697601318359 C 107.7855224609375 190.3774566650391 107.9572906494141 190.436767578125 108.1318435668945 190.4367523193359 C 108.1405715942383 190.4367523193359 108.1493453979492 190.4365997314453 108.1580963134766 190.4363098144531 L 108.1680297851563 190.4359893798828 L 108.1779861450195 190.4359893798828 L 116.8159942626953 190.4359893798828 L 117.2902603149414 190.4359893798828 L 117.399772644043 190.8974304199219 C 118.7457962036133 196.5688323974609 120.0911331176758 202.2405395507813 121.4358139038086 207.9125823974609 L 121.6108627319336 208.6509857177734 L 120.8519897460938 208.6509857177734 L 116.1640625 208.6509857177734 C 115.8678817749023 208.6649475097656 115.61181640625 208.8530120849609 115.5100936889648 209.1322326660156 C 115.407585144043 209.41357421875 115.4845809936523 209.7248840332031 115.7062301635742 209.9259796142578 C 115.8539123535156 210.0555877685547 116.043212890625 210.1269226074219 116.23974609375 210.1269226074219 C 116.2495651245117 210.1269226074219 116.2593994140625 210.1267395019531 116.2692489624023 210.1263732910156 L 116.2801208496094 210.1259918212891 L 116.2909927368164 210.1259918212891 L 121.2519912719727 210.1259613037109 L 121.2665252685547 210.1259613037109 L 121.2810440063477 210.1266632080078 C 121.3172912597656 210.12841796875 121.3539352416992 210.1293182373047 121.3899612426758 210.1293182373047 L 121.3905715942383 210.1293182373047 M 93.624755859375 199.36328125 C 94.33781433105469 199.36328125 95.05516052246094 199.2960815429688 95.75690460205078 199.1635437011719 C 99.44911193847656 198.4662017822266 102.5705947875977 196.0029144287109 104.1073455810547 192.5741577148438 C 105.2778549194336 189.8916168212891 105.3577346801758 186.9045715332031 104.3328552246094 184.1653900146484 C 103.5719909667969 182.1551513671875 102.2619323730469 180.4096221923828 100.5441055297852 179.1173248291016 C 98.56521606445313 177.6273498535156 96.11098480224609 176.8067779541016 93.63351440429688 176.8067779541016 C 93.49259948730469 176.8067779541016 93.34983062744141 176.8094177246094 93.20831298828125 176.8146514892578 C 90.65644073486328 176.9053192138672 88.17594909667969 177.8617401123047 86.22293090820313 179.5084228515625 C 84.65285491943359 180.827392578125 83.47076416015625 182.5496215820313 82.80488586425781 184.4877319335938 C 82.12332153320313 186.4856262207031 82.0225830078125 188.6268463134766 82.51356506347656 190.6799011230469 C 83.00453948974609 192.7329711914063 84.06309509277344 194.5969390869141 85.57640075683594 196.0719299316406 C 86.65041351318359 197.1266326904297 87.90156555175781 197.9488983154297 89.29508972167969 198.5158996582031 C 90.67707061767578 199.0781860351563 92.13378143310547 199.36328125 93.624755859375 199.36328125 M 93.15581512451172 178.2928314208984 L 93.15581512451172 178.2926788330078 C 93.31185150146484 178.2853393554688 93.47028350830078 178.2816162109375 93.62670135498047 178.2816162109375 C 96.13951110839844 178.2816162109375 98.54369354248047 179.2167205810547 100.394889831543 180.9133148193359 C 102.3496246337891 182.6927185058594 103.5036010742188 185.2289123535156 103.5609588623047 187.8716278076172 C 103.6183090209961 190.5143280029297 102.5754623413086 193.0982208251953 100.7005310058594 194.9600067138672 C 98.81024169921875 196.8437194824219 96.29978179931641 197.8810729980469 93.63159942626953 197.8809967041016 C 93.51601409912109 197.8809967041016 93.39873504638672 197.8789520263672 93.28298950195313 197.8749389648438 C 90.52429962158203 197.7789611816406 87.90108489990234 196.5311889648438 86.08620452880859 194.4518127441406 C 82.79000091552734 190.6798706054688 82.94686889648438 184.915283203125 86.44150543212891 181.330078125 C 88.21786499023438 179.4916534423828 90.60234069824219 178.4130706787109 93.15581512451172 178.2928314208984 M 65.98237609863281 210.7299957275391 C 65.49612426757813 210.7299957275391 65.019775390625 210.5870971679688 64.61301422119141 210.3180084228516 C 63.97134399414063 209.8973083496094 63.63287353515625 209.1418914794922 63.74600219726563 208.3829956054688 C 65.17734527587891 202.3483276367188 66.60867309570313 196.3149871826172 68.04001617431641 190.2829895019531 C 68.09719085693359 189.7652893066406 68.34535217285156 189.2875061035156 68.73600006103516 188.9430084228516 L 68.73600006103516 188.9429931640625 C 69.15054321289063 188.5776062011719 69.68342590332031 188.374755859375 70.23600006103516 188.3719787597656 C 73.25267028808594 188.3719940185547 76.26933288574219 188.3719940185547 79.28600311279297 188.3719940185547 C 79.29241943359375 188.3719024658203 79.29890441894531 188.3718566894531 79.30530548095703 188.3718566894531 C 79.73963165283203 188.3718566894531 80.14793395996094 188.5807495117188 80.40200042724609 188.9339904785156 C 80.72639465332031 189.3851623535156 80.73636627197266 189.9903869628906 80.427001953125 190.4519805908203 C 80.17585754394531 190.8273162841797 79.75412750244141 191.0521240234375 79.30336761474609 191.0521392822266 C 79.29689025878906 191.0521392822266 79.29048919677734 191.0520935058594 79.28400421142578 191.052001953125 C 76.39300537109375 191.052001953125 73.50199890136719 191.052001953125 70.61201477050781 191.052001953125 C 69.26868438720703 196.7186737060547 67.92534637451172 202.3853302001953 66.58201599121094 208.052001953125 C 68.16000366210938 208.052001953125 69.73801422119141 208.052001953125 71.31600952148438 208.052001953125 C 72.0374755859375 208.0914001464844 72.59691619873047 208.6972351074219 72.57878112792969 209.4195404052734 C 72.56065368652344 210.1418609619141 71.97154235839844 210.7188873291016 71.24901580810547 210.7220153808594 C 70.62470245361328 210.7270812988281 70 210.7284851074219 69.37551879882813 210.7284851074219 C 68.61500549316406 210.7284851074219 67.85440063476563 210.7264099121094 67.09394836425781 210.7264099121094 C 66.75650787353516 210.7264099121094 66.41939544677734 210.7268218994141 66.08201599121094 210.7279968261719 C 66.04878234863281 210.7293243408203 66.01554107666016 210.7299957275391 65.98237609863281 210.7299957275391 Z M 121.3905792236328 210.7293243408203 C 121.3443984985352 210.7293243408203 121.298225402832 210.7282104492188 121.2519989013672 210.7259674072266 C 119.598991394043 210.7259826660156 117.9439926147461 210.7259826660156 116.2909927368164 210.7259826660156 C 116.2738952636719 210.7266082763672 116.2567901611328 210.7269134521484 116.2397384643555 210.7269134521484 C 115.8963165283203 210.7269287109375 115.5640182495117 210.6013946533203 115.3059844970703 210.3729858398438 C 114.9026794433594 210.0092163085938 114.7604141235352 209.4371337890625 114.9463424682617 208.9268341064453 C 115.1322631835938 208.4165344238281 115.6092147827148 208.0700531005859 116.151985168457 208.0509796142578 L 120.8519897460938 208.0509796142578 C 119.50732421875 202.3789825439453 118.161994934082 196.7073211669922 116.8159942626953 191.0359802246094 C 113.936653137207 191.0359802246094 111.0573196411133 191.0359802246094 108.1779861450195 191.0359802246094 C 108.16259765625 191.0364990234375 108.1471939086914 191.0367584228516 108.1318435668945 191.0367584228516 C 107.8227005004883 191.0367584228516 107.5219650268555 190.9332427978516 107.2779846191406 190.7419738769531 C 106.8562316894531 190.4095306396484 106.6749496459961 189.8566131591797 106.8179931640625 189.3390045166016 L 106.8190002441406 189.3429870605469 C 106.9798355102539 188.7614898681641 107.5086822509766 188.3586273193359 108.1119995117188 188.3579864501953 C 111.1733322143555 188.3579864501953 114.2346649169922 188.3579864501953 117.2960052490234 188.3579864501953 C 118.3404541015625 188.3828582763672 119.2184448242188 189.1494293212891 119.3839950561523 190.1809844970703 C 120.8139953613281 196.2809906005859 122.2729949951172 202.3689880371094 123.7120056152344 208.4639892578125 C 123.7845993041992 209.3673858642578 123.2562637329102 210.2114868164063 122.411994934082 210.5409851074219 C 122.0855026245117 210.6656188964844 121.7392654418945 210.7293090820313 121.3905792236328 210.7293243408203 Z M 93.624755859375 199.9632873535156 C 90.48667144775391 199.9632873535156 87.43698883056641 198.7400207519531 85.156005859375 196.5000152587891 C 81.90920257568359 193.3354797363281 80.77317047119141 188.5850677490234 82.23701477050781 184.2940063476563 C 82.93880462646484 182.2513732910156 84.18326568603516 180.4382476806641 85.83700561523438 179.0490112304688 C 87.9010009765625 177.3087463378906 90.48897552490234 176.3108825683594 93.18701171875 176.2150268554688 C 93.33590698242188 176.2095336914063 93.48497772216797 176.206787109375 93.63351440429688 176.206787109375 C 96.25350952148438 176.206787109375 98.80620574951172 177.0577392578125 100.9050064086914 178.6380004882813 C 102.7108459472656 179.9964904785156 104.0940856933594 181.8395538330078 104.8940048217773 183.9530029296875 C 105.9691162109375 186.8264007568359 105.8837661743164 190.0054321289063 104.6560134887695 192.8170013427734 C 103.0386047363281 196.4280242919922 99.75621032714844 199.018798828125 95.86825561523438 199.7531280517578 C 95.12169647216797 199.8941345214844 94.37052154541016 199.9632873535156 93.624755859375 199.9632873535156 Z M 93.62670135498047 178.8816070556641 C 93.47925567626953 178.8816070556641 93.33195495605469 178.8850555419922 93.18400573730469 178.8920135498047 L 93.18700408935547 178.8920135498047 C 90.79532623291016 179.0038757324219 88.53670501708984 180.025146484375 86.87299346923828 181.7469940185547 C 83.56982421875 185.1357879638672 83.42401885986328 190.4935760498047 86.53800201416016 194.0570068359375 C 88.25094604492188 196.0195770263672 90.70045471191406 197.1847229003906 93.30385589599609 197.2752990722656 C 93.41317749023438 197.2790985107422 93.52260589599609 197.2809906005859 93.63160705566406 197.2809906005859 C 96.11831665039063 197.2810668945313 98.50930023193359 196.2965545654297 100.2770156860352 194.5350036621094 C 102.044921875 192.7794799804688 103.0151596069336 190.3755035400391 102.9611053466797 187.8846435546875 C 102.9070434570313 185.3937683105469 101.8334045410156 183.0341644287109 99.99098968505859 181.3570098876953 C 98.25011444091797 179.7615356445313 95.97743988037109 178.8816070556641 93.62670135498047 178.8816070556641 Z"/>
      </g>
      <g id="Path_11" data-name="Path 11" class="cls-3" transform="translate(-85.099 -448.608)">
        <path class="cls-7" d="M 157.5535736083984 572.7528076171875 C 157.146728515625 572.7528076171875 156.7505340576172 572.67236328125 156.3759918212891 572.5137329101563 C 155.6138305664063 572.180419921875 155.1530303955078 571.3707885742188 155.2546997070313 570.5426025390625 C 157.0009765625 562.9472045898438 158.7480773925781 555.3526000976563 160.496337890625 547.75732421875 L 160.4986877441406 547.7470703125 L 160.5003204345703 547.7367553710938 C 160.5554656982422 547.386962890625 160.6428680419922 547.0403442382813 160.7601318359375 546.7062377929688 C 161.0877532958984 546.0426635742188 161.747314453125 545.592529296875 162.4853210449219 545.5299682617188 L 162.4854125976563 545.5299682617188 C 165.9454193115234 545.523193359375 169.6040649414063 545.5202026367188 174.3448638916016 545.5202026367188 C 176.5879821777344 545.5202026367188 178.8313140869141 545.5208740234375 181.0746154785156 545.5215454101563 C 183.3179931640625 545.522216796875 185.5613555908203 545.5228271484375 187.8045501708984 545.5228271484375 C 190.142578125 545.5228271484375 192.479248046875 545.5221557617188 194.8172760009766 545.5199584960938 L 194.8204803466797 545.5199584960938 L 194.8236846923828 545.5198974609375 C 194.8396759033203 545.51953125 194.8556823730469 545.5193481445313 194.8716125488281 545.5193481445313 C 195.6883239746094 545.5193481445313 196.4207611083984 545.9727783203125 196.7852325439453 546.7031860351563 C 196.8844451904297 546.9392700195313 196.9503479003906 547.1878051757813 196.9811553955078 547.4420166015625 L 196.9830627441406 547.457763671875 L 196.9866027832031 547.4732055664063 C 198.7611083984375 555.1898803710938 200.5356903076172 562.9064331054688 202.3101654052734 570.621826171875 C 202.3510131835938 571.0818481445313 202.2183532714844 571.5355834960938 201.9356079101563 571.9014282226563 C 201.5260620117188 572.4236450195313 200.9085845947266 572.7280883789063 200.2428436279297 572.7350463867188 C 200.0489196777344 572.7398681640625 199.8483428955078 572.741943359375 199.5881958007813 572.741943359375 C 199.4619445800781 572.741943359375 199.3355865478516 572.741455078125 199.2090454101563 572.740966796875 C 199.0813903808594 572.740478515625 198.9535522460938 572.739990234375 198.8254699707031 572.739990234375 C 198.6957244873047 572.739990234375 198.5658264160156 572.740478515625 198.4355163574219 572.7420043945313 L 157.8209838867188 572.7420043945313 L 157.8088836669922 572.7420043945313 L 157.7968292236328 572.7429809570313 C 157.7162475585938 572.7494506835938 157.6344146728516 572.7528076171875 157.5535736083984 572.7528076171875 Z M 162.6734161376953 547.5989379882813 L 162.6196899414063 547.83154296875 C 160.8961029052734 555.2923583984375 159.1539611816406 562.851806640625 157.4416351318359 570.2998657226563 L 157.3571929931641 570.6670532226563 L 157.7339935302734 570.6670532226563 L 199.8009948730469 570.6670532226563 L 200.1778106689453 570.6670532226563 L 200.0933685302734 570.2998657226563 C 198.3713684082031 562.8104858398438 196.6486968994141 555.3211059570313 194.9253540039063 547.831787109375 L 194.8718109130859 547.5990600585938 L 194.6329956054688 547.5990600585938 L 179.2569885253906 547.5990600585938 L 178.5408935546875 547.5990600585938 L 178.5486602783203 547.60693359375 L 162.9121398925781 547.5990600585938 L 162.6734161376953 547.5989379882813 Z M 178.9402313232422 569.3905639648438 C 178.7097625732422 569.3905639648438 178.5124053955078 569.2337036132813 178.4602355957031 569.0091552734375 L 178.4595642089844 569.0062255859375 L 178.4588165283203 569.0032958984375 C 177.1471862792969 563.8311157226563 175.8185729980469 558.5825805664063 174.5098419189453 553.4035034179688 L 174.5065460205078 553.3905029296875 L 174.5021209716797 553.3778076171875 C 174.4217681884766 553.1483764648438 174.378173828125 552.9091796875 174.3724365234375 552.6663818359375 C 174.4118499755859 552.4735717773438 174.5792999267578 552.3204345703125 174.7720794677734 552.1441650390625 C 174.8364868164063 552.0852661132813 174.903076171875 552.0243530273438 174.9661254882813 551.9600830078125 C 175.6516265869141 551.2756958007813 176.3555145263672 550.5818481445313 177.0362548828125 549.910888671875 C 177.6307678222656 549.3248901367188 178.2455291748047 548.7189331054688 178.8476104736328 548.11962890625 L 178.9514465332031 548.0162353515625 L 179.0431518554688 548.1094970703125 C 179.5020294189453 548.5758056640625 179.9750518798828 549.0414428710938 180.4325103759766 549.4918212890625 C 180.8363952636719 549.8894653320313 181.2540435791016 550.3005981445313 181.6598968505859 550.710205078125 C 181.8589019775391 550.908203125 182.0613861083984 551.1053466796875 182.2572021484375 551.2959594726563 C 182.6484680175781 551.6768798828125 183.0530242919922 552.0707397460938 183.4312133789063 552.4729614257813 C 183.5679473876953 552.63671875 183.5172576904297 552.8754272460938 183.4244689941406 553.2197265625 C 183.4106597900391 553.2709350585938 183.3970947265625 553.3214111328125 183.3848419189453 553.37060546875 C 182.0659027099609 558.5612182617188 180.7348937988281 563.8098754882813 179.4291534423828 568.9693603515625 L 179.4268188476563 568.9786376953125 L 179.4250640869141 568.9879760742188 C 179.3825225830078 569.2161254882813 179.1832733154297 569.3853759765625 178.9512939453125 569.3904418945313 L 178.9402313232422 569.3905639648438 Z"/>
        <path class="cls-8" d="M 157.5535736083984 572.4527587890625 C 157.6263275146484 572.4527587890625 157.7000427246094 572.4498291015625 157.7726745605469 572.4439697265625 L 157.7967987060547 572.4420166015625 L 157.8209838867188 572.4420166015625 L 198.4355926513672 572.4420166015625 C 198.5658721923828 572.4404907226563 198.6957702636719 572.4400024414063 198.8254699707031 572.4400024414063 C 198.9539337158203 572.4400024414063 199.0821533203125 572.4404907226563 199.210205078125 572.4409790039063 C 199.3363647460938 572.4414672851563 199.4623260498047 572.4419555664063 199.5881958007813 572.4419555664063 C 199.8458709716797 572.4419555664063 200.0441284179688 572.4398803710938 200.2310485839844 572.4352416992188 L 200.2353820800781 572.4351196289063 L 200.2397155761719 572.43505859375 C 200.8139190673828 572.4290771484375 201.3464965820313 572.1664428710938 201.6982269287109 571.718017578125 C 201.9305419921875 571.4173583984375 202.0416564941406 571.0458374023438 202.0129699707031 570.6680297851563 C 200.2401123046875 562.959716796875 198.4671020507813 555.2500610351563 196.6942443847656 547.5404052734375 L 196.6871490478516 547.5095825195313 L 196.6833343505859 547.4780883789063 C 196.6562652587891 547.254638671875 196.5987701416016 547.0361938476563 196.5123901367188 546.828369140625 C 196.1975708007813 546.2055053710938 195.5704803466797 545.8193359375 194.8716125488281 545.8193359375 C 194.8579559326172 545.8193359375 194.8442077636719 545.8195190429688 194.8305053710938 545.81982421875 L 194.8240356445313 545.8199462890625 L 194.8175659179688 545.8199462890625 C 192.4616546630859 545.8221435546875 190.1073760986328 545.8228759765625 187.7514343261719 545.8228759765625 C 185.5901947021484 545.8228759765625 183.4288940429688 545.822265625 181.2675018310547 545.8216552734375 C 179.1060638427734 545.8211059570313 176.9445343017578 545.8204956054688 174.7829132080078 545.8204956054688 C 169.8422241210938 545.8204956054688 166.0484771728516 545.82373046875 162.4877777099609 545.8309936523438 C 161.8691711425781 545.891357421875 161.3175811767578 546.2688598632813 161.0370635986328 546.8231201171875 C 160.9288482666016 547.134765625 160.8480224609375 547.4576416015625 160.7966613769531 547.783447265625 L 160.7933959960938 547.8041381835938 L 160.7886962890625 547.8245849609375 C 159.0417175292969 555.414306640625 157.2957153320313 563.004150390625 155.5507202148438 570.5939331054688 C 155.4723968505859 571.2850952148438 155.858154296875 571.958251953125 156.4962921142578 572.2388916015625 C 156.8326568603516 572.3807983398438 157.1883392333984 572.4527587890625 157.5535736083984 572.4527587890625 M 162.4348449707031 547.298828125 L 162.9122924804688 547.299072265625 L 177.8321990966797 547.3065795898438 L 177.8247833251953 547.299072265625 L 179.2569885253906 547.299072265625 L 194.6329956054688 547.299072265625 L 195.1106262207031 547.299072265625 L 195.2177124023438 547.7645263671875 C 196.9410705566406 555.2538452148438 198.6637268066406 562.7432861328125 200.3857421875 570.2326049804688 L 200.5546112060547 570.967041015625 L 199.8009948730469 570.967041015625 L 157.7339935302734 570.967041015625 L 156.9804077148438 570.967041015625 L 157.1492462158203 570.2326049804688 C 158.8616027832031 562.7844848632813 160.6037750244141 555.2249755859375 162.327392578125 547.7639770507813 L 162.4348449707031 547.298828125 M 178.9447479248047 569.0905151367188 C 179.0355224609375 569.0885009765625 179.1135101318359 569.0222778320313 179.1301574707031 568.9329833984375 L 179.1336517333984 568.9142456054688 L 179.1383361816406 568.895751953125 C 180.444091796875 563.7362060546875 181.7751159667969 558.4874267578125 183.0937194824219 553.2982177734375 C 183.1064147949219 553.2471313476563 183.1204681396484 553.19482421875 183.1348114013672 553.1416015625 C 183.1763153076172 552.9876098632813 183.2451324462891 552.7322387695313 183.2034759521484 552.668701171875 C 182.8324127197266 552.274658203125 182.4336853027344 551.886474609375 182.0479278564453 551.5109252929688 C 181.8515319824219 551.3197631835938 181.6484680175781 551.1220092773438 181.44677734375 550.9213256835938 C 181.0422515869141 550.5130615234375 180.6252746582031 550.1026000976563 180.2220458984375 549.7056274414063 C 179.8034820556641 549.2935180664063 179.3719024658203 548.86865234375 178.9493713378906 548.4415283203125 C 178.3820648193359 549.0055541992188 177.8054962158203 549.5738525390625 177.2468414306641 550.12451171875 C 176.5670776367188 550.7945556640625 175.8642425537109 551.4873657226563 175.1778259277344 552.1726684570313 C 175.1098937988281 552.2417602539063 175.0410919189453 552.3046875 174.9745330810547 552.3655395507813 C 174.8445587158203 552.4844360351563 174.7106018066406 552.60693359375 174.6738128662109 552.7018432617188 C 174.6826019287109 552.8986206054688 174.7200012207031 553.0923461914063 174.7852630615234 553.2786865234375 L 174.7941131591797 553.3040161132813 L 174.8006896972656 553.3300170898438 C 176.1094055175781 558.509033203125 177.4380035400391 563.7574462890625 178.7496032714844 568.9295654296875 L 178.7510986328125 568.9354248046875 L 178.7524719238281 568.9412841796875 C 178.7728729248047 569.0291748046875 178.8500823974609 569.090576171875 178.9447479248047 569.0905151367188 M 157.5535736083984 573.0527954101563 C 157.1096954345703 573.0527954101563 156.6694030761719 572.9638061523438 156.2590026855469 572.7899780273438 C 155.3623046875 572.3978881835938 154.8324737548828 571.4605102539063 154.9589691162109 570.489990234375 C 156.7063140869141 562.8899536132813 158.4546508789063 555.2899780273438 160.2039794921875 547.6900024414063 C 160.2630157470703 547.3155517578125 160.3564147949219 546.9473266601563 160.4829864501953 546.5900268554688 C 160.8558959960938 545.81982421875 161.6072998046875 545.3032836914063 162.4599761962891 545.2310180664063 C 166.5677642822266 545.22265625 170.6763000488281 545.220458984375 174.7828979492188 545.220458984375 C 179.1060943603516 545.220458984375 183.4289093017578 545.2228393554688 187.7514343261719 545.2228393554688 C 190.1071929931641 545.2228393554688 192.4612884521484 545.22216796875 194.8170013427734 545.219970703125 C 194.8352203369141 545.2195434570313 194.8534545898438 545.2193603515625 194.8716125488281 545.2193603515625 C 195.7978515625 545.2193603515625 196.6462707519531 545.7447509765625 197.0579833984375 546.5779418945313 C 197.1700439453125 546.8422241210938 197.2444458007813 547.1209716796875 197.2789764404297 547.4059448242188 C 199.0549926757813 555.1292724609375 200.8309936523438 562.8519897460938 202.6069946289063 570.573974609375 C 202.660400390625 571.114501953125 202.505126953125 571.6550903320313 202.1729888916016 572.0848999023438 C 201.7081146240234 572.6776123046875 200.9992218017578 573.0271606445313 200.2459869384766 573.0350341796875 C 200.0268402099609 573.04052734375 199.8076629638672 573.0419921875 199.5881805419922 573.0419921875 C 199.3345947265625 573.0419921875 199.0805053710938 573.0399780273438 198.8254699707031 573.0399780273438 C 198.6968841552734 573.0399780273438 198.5681304931641 573.04052734375 198.4389801025391 573.0419921875 C 184.9003143310547 573.0419921875 171.3609771728516 573.0419921875 157.8209838867188 573.0419921875 C 157.7318572998047 573.0491943359375 157.6426239013672 573.0527954101563 157.5535736083984 573.0527954101563 Z M 199.8009948730469 570.3670654296875 C 198.0789947509766 562.8777465820313 196.3563385009766 555.3883666992188 194.6329956054688 547.8990478515625 C 189.5076599121094 547.8990478515625 184.38232421875 547.8990478515625 179.2569885253906 547.8990478515625 C 180.1189880371094 548.7750244140625 181.0059814453125 549.6240234375 181.8729858398438 550.4990234375 C 182.4669799804688 551.0900268554688 183.0809783935547 551.6620483398438 183.6549835205078 552.2730102539063 C 183.9469909667969 552.6119995117188 183.7699890136719 553.0650024414063 183.6759796142578 553.4429931640625 C 182.3546447753906 558.6430053710938 181.0359802246094 563.8429565429688 179.7199859619141 569.04296875 C 179.6511840820313 569.4119873046875 179.3330841064453 569.6821899414063 178.9578247070313 569.6903686523438 C 178.9519653320313 569.6904907226563 178.9460754394531 569.6905517578125 178.9402313232422 569.6905517578125 C 178.5722808837891 569.6905517578125 178.2516021728516 569.4368896484375 178.1680145263672 569.0770263671875 C 176.8493194580078 563.876953125 175.5329895019531 558.677001953125 174.2189788818359 553.4769897460938 C 174.1250610351563 553.2088012695313 174.0754089355469 552.9271240234375 174.0719757080078 552.6430053710938 C 174.1319732666016 552.2479858398438 174.4919738769531 552.0150146484375 174.7519683837891 551.75 C 176.0409698486328 550.4630126953125 177.344970703125 549.1920166015625 178.6359710693359 547.906982421875 L 162.9119873046875 547.8990478515625 C 161.1819915771484 555.3876953125 159.4559936523438 562.8770141601563 157.7339935302734 570.3670654296875 L 199.8009948730469 570.3670654296875 Z"/>
      </g>
    </g>
    <path id="箭头_1_" data-name="箭头 (1)" class="cls-4" d="M71.728,238.666a.753.753,0,0,1,.537.226l14.241,14.46a.778.778,0,0,1,0,1.089.751.751,0,0,1-1.073,0l-13.7-13.916-13.7,13.916a.751.751,0,0,1-1.073,0,.778.778,0,0,1,0-1.088l14.241-14.461a.753.753,0,0,1,.537-.226Z" transform="translate(122.334 86.728) rotate(-90)"/>
    <path id="箭头_1_2" data-name="箭头 (1)" class="cls-4" d="M71.728,238.666a.7.7,0,0,1,.537.268l14.241,17.172a1.051,1.051,0,0,1,0,1.293.671.671,0,0,1-1.073,0l-13.7-16.525L58.023,257.4a.671.671,0,0,1-1.073,0,1.051,1.051,0,0,1,0-1.293l14.241-17.172a.7.7,0,0,1,.537-.268Z" transform="translate(647.667 -56.728) rotate(90)"/>
    <g id="QQ" transform="translate(-380 -6909)">
      <g id="Ellipse_3" data-name="Ellipse 3" class="cls-5" transform="translate(800 6910)">
        <circle class="cls-7" cx="30" cy="30" r="30"/>
        <circle class="cls-9" cx="30" cy="30" r="29"/>
      </g>
      <path id="QQ-2" data-name="QQ" class="cls-6" d="M94.622,23.67a13.29,13.29,0,0,0-3.609-6.857c.415-3.761-1.111-4.426-1.111-4.426C89.58.752,79.834.955,79.633.964S69.681.756,69.363,12.388c0,0-1.53.669-1.111,4.426a13.256,13.256,0,0,0-3.609,6.857s-.369,7,3.332.856a19.907,19.907,0,0,0,2.36,4.426s-2.733.952-2.5,3.428c0,0-.092,2.759,5.835,2.572,0,0,4.167-.332,5.416-2.14h1.1c1.249,1.808,5.416,2.14,5.416,2.14,5.923.191,5.831-2.572,5.831-2.572.231-2.473-2.5-3.428-2.5-3.428a19.907,19.907,0,0,0,2.36-4.426c3.7,6.142,3.324-.856,3.324-.856Zm0,0" transform="translate(750.367 6922.038)"/>
    </g>
    <g id="微信" transform="translate(-289.996 -6989)">
      <g id="Ellipse_4" data-name="Ellipse 4" class="cls-5" transform="translate(800 6990)">
        <circle class="cls-7" cx="30" cy="30" r="30"/>
        <circle class="cls-9" cx="30" cy="30" r="29"/>
      </g>
      <g id="微信_1_" data-name="微信 (1)" transform="translate(812 6910.216)">
        <path id="Path_12" data-name="Path 12" class="cls-6" d="M442.364,387.858c0-5.1-5.1-9.256-10.839-9.256-6.079,0-10.853,4.154-10.853,9.256s4.774,9.254,10.853,9.254a16.474,16.474,0,0,0,3.829-.634l3.5,1.921-.959-3.192C440.455,393.284,442.364,390.727,442.364,387.858ZM428,386.261a1.271,1.271,0,0,1,0-2.543,1.3,1.3,0,1,1,0,2.543Zm7.025,0a1.271,1.271,0,0,1,0-2.543,1.3,1.3,0,1,1,0,2.543Z" transform="translate(-405.547 -273.614)"/>
        <path id="Path_13" data-name="Path 13" class="cls-6" d="M24.925,103.861a12.27,12.27,0,0,1,1.255.072c-1.124-5.254-6.737-9.149-13.147-9.149C5.874,94.784,0,99.661,0,105.866c0,3.58,1.949,6.523,5.21,8.8l-1.3,3.924,4.56-2.293a22.754,22.754,0,0,0,4.561.65,11.907,11.907,0,0,0,1.213-.056,9.519,9.519,0,0,1-.4-2.728C13.841,108.479,18.734,103.861,24.925,103.861Zm-7.015-3.536a1.631,1.631,0,0,1,0,3.261,1.659,1.659,0,1,1,0-3.261Zm-9.12,3.26a1.658,1.658,0,1,1,0-3.261,1.63,1.63,0,1,1,0,3.261Z" transform="translate(0 0)"/>
      </g>
    </g>
    <g id="微博" transform="translate(-200 -7069)">
      <g id="Ellipse_5" data-name="Ellipse 5" class="cls-5" transform="translate(800 7070)">
        <circle class="cls-7" cx="30" cy="30" r="30"/>
        <circle class="cls-9" cx="30" cy="30" r="29"/>
      </g>
      <g id="微博-2" data-name="微博" transform="translate(812.001 6990.633)">
        <path id="Path_14" data-name="Path 14" class="cls-6" d="M27.35,233.17c-.592-.055-1.129-.382-.736-1.057s1.118-2.64-.277-4.023-4.444-.863-6.6.033-2.037.271-1.97-.343c.072-.648,1.234-4.267-2.319-4.7-4.654-.57-10.625,5.191-12.734,8.511C-.475,236.6.028,239.994.028,239.994H.05c.382,4.682,7.277,8.412,15.728,8.412,7.266,0,13.387-2.762,15.2-6.514a.256.256,0,0,1,.022-.044,5.652,5.652,0,0,0,.421-1.24,7.085,7.085,0,0,0-.028-3.907,5.613,5.613,0,0,0-4.04-3.531h0ZM14.732,246.358c-6.016,0-10.9-3.232-10.9-7.216s4.875-7.216,10.9-7.216,10.9,3.232,10.9,7.216S20.748,246.358,14.732,246.358Zm14.815-15.993a.829.829,0,0,0,.343.072.882.882,0,0,0,.814-.542A4.356,4.356,0,0,0,25,224.183a.887.887,0,1,0,.692,1.633,2.618,2.618,0,0,1,1.007-.2,2.587,2.587,0,0,1,2.584,2.585,2.524,2.524,0,0,1-.2,1.007.88.88,0,0,0,.47,1.162h0Zm0,0" transform="translate(0 -124.038)"/>
        <path id="Path_15" data-name="Path 15" class="cls-6" d="M238.62,94.367a10.312,10.312,0,0,0-2.911.421,1.327,1.327,0,1,0,.753,2.546,7.573,7.573,0,0,1,9.718,7.25,7.734,7.734,0,0,1-.321,2.2,1.33,1.33,0,0,0,2.546.769,10.224,10.224,0,0,0-9.784-13.182h0ZM225.7,110.521c-3.21,0-5.811,2.275-5.811,5.086s2.6,5.086,5.811,5.086,5.811-2.275,5.811-5.086S228.914,110.521,225.7,110.521Zm-1.9,8.39a2.036,2.036,0,1,1,2.036-2.037A2.038,2.038,0,0,1,223.806,118.911Zm3.807-3.669a.762.762,0,1,1-.2-1.146A.825.825,0,0,1,227.613,115.241Zm0,0" transform="translate(-211.979)"/>
      </g>
    </g>
  </g>
</svg>
